<svg width="74" height="80" viewBox="0 0 74 80" fill="none" xmlns="http://www.w3.org/2000/svg">
<g clip-path="url(#clip0_103_242)" filter="url(#filter0_d_103_242)">
<path d="M68.6301 39.3324C67.045 37.6048 64.0918 37.9723 62.1169 39.4331C60.3121 40.9371 47.9738 49.0458 47.9738 49.0458H32.9777L32.9305 49.0694C32.1406 49.0432 31.5234 48.38 31.5467 47.5916C31.5755 46.8015 32.24 46.1829 33.0247 46.2103L32.9776 46.1829C35.6586 46.1829 44.0263 46.1829 44.0263 46.1829C46.2444 46.1829 48.0441 44.3859 48.0441 42.1692C48.0441 39.9485 46.2444 38.1501 44.0263 38.1501C42.0175 38.1501 38.0022 38.1501 27.9605 38.1501C17.9161 38.1501 14.7354 42.3367 11.2199 45.8495L4.84287 51.4211C4.4269 51.7821 4.18896 52.3012 4.18896 52.8532V71.3686C4.18896 71.6131 4.3355 71.8394 4.56036 71.9428C4.78536 72.0448 5.04959 72.0094 5.23789 71.846L17.5631 61.2785C17.9974 60.9096 18.578 60.7527 19.1378 60.8533L38.3478 64.3453C39.6869 64.5886 41.0655 64.2814 42.1823 63.4954C42.1823 63.4954 66.6969 46.4474 68.5096 44.9394C70.2335 43.3568 70.2152 41.0601 68.6301 39.3324Z" fill="white"/>
<path d="M31.4633 30.7031C34.4897 32.7761 38.2982 34.2957 38.2982 34.2957C38.6487 34.4096 39.1902 34.5089 39.3785 34.5089C39.5643 34.5089 40.1057 34.4096 40.4563 34.2957C40.4563 34.2957 44.2621 32.7761 47.291 30.7031C51.8999 27.5615 59.3757 21.3949 59.3757 12.7016C59.3757 3.88404 54.3874 -0.11154 48.8998 0.00236604C44.7147 0.0781629 42.2428 2.55133 40.5844 4.98921C40.2809 5.44174 39.8284 5.73073 39.3785 5.74254C38.926 5.73073 38.4734 5.44174 38.1726 4.98921C36.5143 2.55133 34.0398 0.0781629 29.8547 0.00236604C24.3643 -0.11154 19.3813 3.88404 19.3813 12.7016C19.3813 21.3949 26.8543 27.5616 31.4633 30.7031ZM27.3487 5.52401C27.7698 5.00749 28.2956 4.56944 28.8972 4.20438C29.491 3.84607 30.2626 4.03563 30.6209 4.62949C30.9821 5.22321 30.791 5.99623 30.1971 6.35327C29.8022 6.59388 29.5118 6.84504 29.2972 7.1104C28.8605 7.64927 28.0679 7.72901 27.529 7.29096C26.993 6.85291 26.912 6.06302 27.3487 5.52401ZM24.406 13.527C24.406 12.6874 24.4924 11.908 24.678 11.1912C24.8532 10.5189 25.5413 10.1174 26.2109 10.294C26.8831 10.468 27.2832 11.1546 27.1107 11.8254C26.9878 12.291 26.9172 12.8586 26.9172 13.527C26.9172 14.1888 26.9852 14.95 27.1289 15.8027C27.3591 17.1682 27.9399 18.4368 28.7899 19.6281C29.1928 20.1918 29.062 20.9764 28.4969 21.3793C27.9294 21.7821 27.1472 21.6513 26.7445 21.0864C25.7165 19.6516 24.9553 18.0221 24.6518 16.2212C24.4897 15.2561 24.406 14.3614 24.406 13.527Z" fill="white"/>
</g>
<defs>
<filter id="filter0_d_103_242" x="-3" y="0" width="80" height="80" filterUnits="userSpaceOnUse" color-interpolation-filters="sRGB">
<feFlood flood-opacity="0" result="BackgroundImageFix"/>
<feColorMatrix in="SourceAlpha" type="matrix" values="0 0 0 0 0 0 0 0 0 0 0 0 0 0 0 0 0 0 127 0" result="hardAlpha"/>
<feOffset dy="4"/>
<feGaussianBlur stdDeviation="2"/>
<feComposite in2="hardAlpha" operator="out"/>
<feColorMatrix type="matrix" values="0 0 0 0 0 0 0 0 0 0 0 0 0 0 0 0 0 0 0.25 0"/>
<feBlend mode="normal" in2="BackgroundImageFix" result="effect1_dropShadow_103_242"/>
<feBlend mode="normal" in="SourceGraphic" in2="effect1_dropShadow_103_242" result="shape"/>
</filter>
<clipPath id="clip0_103_242">
<rect width="72" height="72" fill="white" transform="translate(1)"/>
</clipPath>
</defs>
</svg>
