<svg width="64" height="72" viewBox="0 0 64 72" fill="none" xmlns="http://www.w3.org/2000/svg">
<path d="M6.54112 57.2434C6.97158 45.6469 12.4008 34.0403 21.5524 25.5139C27.0617 20.3798 33.4679 16.662 40.5925 14.465C40.6963 14.4323 40.8009 14.4087 40.9058 14.3782C40.8078 14.0965 40.7278 13.8059 40.6207 13.5298C38.3437 7.60148 34.0863 3.00713 28.7945 0C22.9269 1.82067 17.5438 5.03606 13.0113 9.50991C8.48906 13.9815 4.84097 19.6947 2.7195 26.361C0.601406 33.0251 0.324235 39.697 1.65019 45.7933C2.56073 49.9393 4.20323 53.8374 6.54112 57.2434Z" fill="white"/>
<path d="M60.7584 16.0659C54.4257 15.2581 47.8911 15.8485 41.6124 17.7705C35.3313 19.7095 29.2621 23.0601 23.9117 28.0465C14.0819 37.206 9.23162 49.6239 10.0631 61.2845C8.67517 62.3391 7.27243 63.3824 5.82807 64.412C4.36909 65.4362 2.92923 66.4671 1.13232 67.4833L3.69325 72C5.82147 70.7901 7.3097 69.7118 8.8397 68.6403C10.3461 67.5667 11.7847 66.4964 13.2043 65.4169C24.3276 69.2611 38.7688 66.2382 49.8717 55.8935C55.8947 50.2863 60.0442 43.301 61.9538 36.174C63.8805 29.0537 63.4984 21.8242 60.7584 16.0659ZM53.2032 26.422C50.3944 30.5241 46.1448 35.4181 41.5707 40.2491C45.6345 39.5833 48.8827 38.9782 50.4385 38.6798C51.0932 38.5547 51.4468 38.4836 51.4479 38.4836C52.0732 38.3586 52.6805 38.7641 52.8055 39.3884C52.9306 40.0137 52.525 40.621 51.9008 40.746C51.8895 40.7482 46.2777 41.8693 38.9208 43.0093C38.1097 43.8408 37.295 44.6655 36.4828 45.4777C34.0064 47.953 31.5595 50.3132 29.2982 52.4336C34.8605 51.5695 40.5544 50.4125 43.3328 49.8243C44.437 49.5911 45.0769 49.4491 45.079 49.448C45.7009 49.3106 46.3171 49.7025 46.4558 50.3245C46.5932 50.9465 46.2012 51.5626 45.5792 51.7012C45.5622 51.7035 35.1713 54.0153 26.4455 55.1792L26.3093 55.1972C24.0266 57.2759 22.0731 58.9783 20.6782 60.1195V60.1206C20.186 60.5239 19.4582 60.4506 19.0548 59.9572C18.6515 59.465 18.7248 58.7371 19.2182 58.3338C20.6727 57.144 22.7998 55.2839 25.2909 53.0014C25.3619 52.5012 25.4396 51.8702 25.5206 51.1346C25.6569 49.8997 25.8022 48.3992 25.9453 46.8229C26.2328 43.6718 26.5087 40.2209 26.6844 37.9653C26.8016 36.4624 26.8737 35.4933 26.8737 35.4912C26.921 34.8557 27.4742 34.3792 28.1097 34.4266C28.7452 34.4728 29.2217 35.027 29.1745 35.6625C29.1745 35.667 28.5255 44.4267 27.9554 50.0508C27.9363 50.239 27.9183 50.4035 27.8992 50.5825C30.0928 48.522 32.4633 46.235 34.8517 43.8465C35.6943 43.0037 36.5382 42.1486 37.3798 41.2867C37.7246 39.9077 37.9769 37.7086 38.1279 35.5047C38.2959 33.1196 38.3622 30.7087 38.3894 29.1663C38.4074 28.1388 38.4074 27.5023 38.4074 27.5011C38.4074 26.8635 38.9233 26.3474 39.5611 26.3474C40.1988 26.3474 40.7147 26.8635 40.7147 27.5011C40.7136 27.5213 40.717 33.3709 40.2213 38.0859C40.2112 38.1772 40.1998 38.2639 40.1897 38.3539C44.6072 33.6694 48.6744 28.96 51.2994 25.1193C51.6589 24.5932 52.3765 24.4592 52.9027 24.8185C53.4285 25.1781 53.5625 25.8958 53.2032 26.422Z" fill="white"/>
</svg>
