<svg width="60" height="60" viewBox="0 0 60 60" fill="none" xmlns="http://www.w3.org/2000/svg">
<path d="M29.9999 55.6138C43.9871 55.6138 55.6139 43.9872 55.6139 30C55.6139 15.9878 43.962 4.38623 29.9748 4.38623C15.9625 4.38623 4.38611 15.9878 4.38611 30C4.38611 43.9872 15.9876 55.6138 29.9999 55.6138ZM23.4457 36.2529C17.2181 30.0503 13.2505 22.14 17.9463 17.4443C18.2225 17.1679 18.5239 16.8917 18.8001 16.6155C20.2315 15.2595 21.6126 15.3348 22.8431 17.0676L26.1076 21.7132C27.2125 23.3203 26.9362 24.2244 25.7561 25.48L24.7264 26.61C24.3498 26.9614 24.5005 27.4387 24.6763 27.7399C25.1534 28.644 26.5094 30.2512 27.9658 31.7077C29.4725 33.2143 31.0044 34.495 31.9586 35.0223C32.3102 35.2232 32.8124 35.2735 33.1389 34.9721L34.2186 33.9426C35.424 32.7623 36.4034 32.461 37.9603 33.5658C40.1199 35.0977 41.4257 36.0017 42.7064 36.8806C44.2884 38.0357 44.6651 39.4672 43.0579 40.9236C42.7817 41.1998 42.5306 41.5012 42.2544 41.7774C37.5585 46.4482 29.6734 42.4804 23.4457 36.2529Z" fill="white"/>
</svg>
