<?xml version="1.0" encoding="UTF-8" standalone="no"?>
<!-- Uploaded to: SVG Repo, www.svgrepo.com, Transformed by: SVG Repo Mixer Tools -->

<svg
   width="600.00061"
   height="566.6651"
   viewBox="0 0 18.000018 16.999953"
   fill="none"
   version="1.1"
   id="svg1"
   sodipodi:docname="phone mono.svg"
   inkscape:version="1.3.1 (91b66b0, 2023-11-16)"
   xmlns:inkscape="http://www.inkscape.org/namespaces/inkscape"
   xmlns:sodipodi="http://sodipodi.sourceforge.net/DTD/sodipodi-0.dtd"
   xmlns="http://www.w3.org/2000/svg"
   xmlns:svg="http://www.w3.org/2000/svg">
  <defs
     id="defs1" />
  <sodipodi:namedview
     id="namedview1"
     pagecolor="#505050"
     bordercolor="#ffffff"
     borderopacity="1"
     inkscape:showpageshadow="0"
     inkscape:pageopacity="0"
     inkscape:pagecheckerboard="1"
     inkscape:deskcolor="#505050"
     inkscape:zoom="0.295"
     inkscape:cx="266.10169"
     inkscape:cy="332.20339"
     inkscape:window-width="1312"
     inkscape:window-height="449"
     inkscape:window-x="0"
     inkscape:window-y="25"
     inkscape:window-maximized="0"
     inkscape:current-layer="svg1" />
  <g
     id="SVGRepo_bgCarrier"
     stroke-width="0"
     transform="translate(-4.0000018,-2.0000034)" />
  <g
     id="SVGRepo_tracerCarrier"
     stroke-linecap="round"
     stroke-linejoin="round"
     transform="translate(-4.0000018,-2.0000034)" />
  <g
     id="SVGRepo_iconCarrier"
     transform="translate(-4.0000018,-2.0000034)">
    <path
       d="m 16.5562,12.9062 -0.4555,0.4528 c 0,0 -1.0826,1.0765 -4.0376,-1.8618 C 9.10812,8.55901 10.1907,7.48257 10.1907,7.48257 l 0.2868,-0.28519 c 0.7066,-0.70254 0.7732,-1.83047 0.1567,-2.6539 L 9.37326,2.85908 C 8.61028,1.83992 7.13596,1.70529 6.26145,2.57483 l -1.5696,1.56069 c -0.43362,0.43116 -0.7242,0.99007 -0.68896,1.61009 0.09015,1.58621 0.80782,4.99909 4.81247,8.98099 4.24674,4.2226 8.23144,4.3904 9.86094,4.2385 0.5154,-0.048 0.9636,-0.3105 1.3248,-0.6697 l 1.4206,-1.4124 c 0.9589,-0.9535 0.6885,-2.5881 -0.5384,-3.255 l -1.9105,-1.0386 c -0.8056,-0.4379 -1.787,-0.3093 -2.4166,0.3168 z"
       fill="#ffffff"
       id="path1" />
  </g>
</svg>
