<?xml version="1.0" encoding="UTF-8" standalone="no"?>
<!-- Uploaded to: SVG Repo, www.svgrepo.com, Transformed by: SVG Repo Mixer Tools -->

<svg
   fill="#ffffff"
   width="800px"
   height="800px"
   viewBox="0 0 14 14"
   role="img"
   focusable="false"
   aria-hidden="true"
   version="1.1"
   id="svg1"
   sodipodi:docname="gui-shipping-svgrepo-com.svg"
   inkscape:version="1.3.1 (91b66b0, 2023-11-16)"
   xmlns:inkscape="http://www.inkscape.org/namespaces/inkscape"
   xmlns:sodipodi="http://sodipodi.sourceforge.net/DTD/sodipodi-0.dtd"
   xmlns="http://www.w3.org/2000/svg"
   xmlns:svg="http://www.w3.org/2000/svg">
  <defs
     id="defs1" />
  <sodipodi:namedview
     id="namedview1"
     pagecolor="#505050"
     bordercolor="#ffffff"
     borderopacity="1"
     inkscape:showpageshadow="0"
     inkscape:pageopacity="0"
     inkscape:pagecheckerboard="1"
     inkscape:deskcolor="#505050"
     inkscape:zoom="0.58177091"
     inkscape:cx="607.62749"
     inkscape:cy="374.71794"
     inkscape:window-width="1440"
     inkscape:window-height="847"
     inkscape:window-x="0"
     inkscape:window-y="25"
     inkscape:window-maximized="0"
     inkscape:current-layer="svg1" />
  <g
     id="SVGRepo_bgCarrier"
     stroke-width="0"
     style="stroke-width:0;stroke-dasharray:none" />
  <g
     id="SVGRepo_tracerCarrier"
     stroke-linecap="round"
     stroke-linejoin="round"
     style="stroke-width:2.24774998;stroke-dasharray:none" />
  <g
     id="SVGRepo_iconCarrier"
     style="fill:#ffffff;fill-opacity:1;stroke-width:2.24775571;stroke-dasharray:none">
    <path
       d="m 12.999823,7.11841 c 0,-0.002 -1.13e-4,-0.004 -1.42e-4,-0.007 -0.0033,-0.15038 -0.124056,-0.2702 -0.276257,-0.2702 l -0.07254,0 L 11.530659,4.6754 C 11.483399,4.5839 11.389137,4.527 11.285075,4.52697 l -1.9125301,-4e-4 0.072962,-0.57836 C 9.4663249,3.71708 9.3948679,3.49885 9.2442567,3.33367 9.0939297,3.16883 8.8840455,3.07803 8.6532297,3.07803 l -5.9358309,0 c -0.1492478,0 -0.2760303,0.11548 -0.2902593,0.26436 l -0.0595,0.47651 3.3819468,0 c 0.2195973,0 0.3929577,0.17802 0.3872206,0.39762 -0.00577,0.2196 -0.1884413,0.39761 -0.4080386,0.39761 l -1.1280635,0 c 1.988e-4,5.7e-4 3.976e-4,10e-4 5.964e-4,0.002 l -3.312648,0 C 1.1333559,4.61613 1.0041593,4.742 1.000098,4.8973 0.996037,5.0526 1.1186158,5.17847 1.273913,5.17847 l 4.385585,0 C 5.8630771,5.20987 6.015165,5.38588 6.00957,5.59903 6.00344,5.83312 5.8096546,6.02292 5.5759703,6.02488 l -3.0235248,0 c -0.1568593,0 -0.287334,0.12715 -0.2914521,0.28401 -0.00412,0.15686 0.1197106,0.28401 0.2765699,0.28401 l 2.9879099,0 c 0.2065612,0.0288 0.361688,0.20625 0.3560646,0.42148 -0.00616,0.23527 -0.2019034,0.42601 -0.4371782,0.42601 l -3.4278145,0 0,3.1e-4 -0.2880156,0 c -0.1568593,0 -0.287334,0.12716 -0.2914522,0.28402 -0.00412,0.15685 0.1196823,0.28401 0.27657,0.28401 l 0.2485665,0 -0.097217,1.01727 c -0.020846,0.2311 0.050611,0.44933 0.2012502,0.61451 0.1502986,0.16487 0.3602112,0.25564 0.591027,0.25564 l 0.2144283,0 c 0.1021872,0.58432 0.6077269,1.02582 1.2261041,1.02582 0.6183773,0 1.1470354,-0.4415 1.2797538,-1.02579 l 2.6759237,0 c 0.2163596,0 0.4211884,-0.0827 0.581825,-0.21818 0.1468905,0.14098 0.3416085,0.21818 0.5542192,0.21818 l 0.044022,0 c 0.1021588,0.58429 0.6076984,1.02579 1.2261039,1.02579 0.618377,0 1.147035,-0.4415 1.279754,-1.02579 l 0.176626,0 c 0.460126,0 0.868193,-0.37407 0.909659,-0.83386 l 0.173076,-1.91724 c 2.28e-4,-0.003 1.14e-4,-0.005 2.84e-4,-0.008 2.84e-4,-0.004 8.24e-4,-0.008 9.38e-4,-0.0118 5.6e-5,-0.002 -1.71e-4,-0.005 -1.71e-4,-0.007 z m -8.8871313,3.23548 c -0.3915092,0 -0.7017061,-0.31849 -0.6914533,-0.71 0.010253,-0.39154 0.3371211,-0.71006 0.7286303,-0.71006 0.3915093,0 0.7016777,0.31852 0.6914249,0.71006 -0.010253,0.39151 -0.3370927,0.71 -0.7286019,0.71 z m 6.3618473,0 c -0.391509,0 -0.7016775,-0.31849 -0.6914531,-0.71 0.010253,-0.39154 0.3371211,-0.71006 0.7286301,-0.71006 0.39151,0 0.701706,0.31852 0.691425,0.71006 -0.01025,0.39151 -0.337093,0.71 -0.728602,0.71 z M 12.259832,9.02594 C 12.245062,9.18973 12.094453,9.3281 11.930948,9.3281 l -0.191055,0 C 11.613395,8.77561 11.12234,8.36581 10.52657,8.36581 c -0.59577,0 -1.1082679,0.4098 -1.2636788,0.96229 l -0.058478,0 C 9.1322172,9.3281 9.0678039,9.301 9.0229585,9.2518 8.9778295,9.2023 8.9565855,9.13499 8.9631455,9.06219 l 0.3581095,-3.96737 0.822468,1.7e-4 -0.130361,1.44425 c -0.020876,0.2311 0.05055,0.44933 0.201165,0.61451 0.150298,0.1649 0.360268,0.25573 0.591112,0.25573 l 1.600061,0 -0.145869,1.61642 z"
       id="path1"
       style="fill:#ffffff;fill-opacity:1;stroke-width:2.24775571;stroke-dasharray:none" />
  </g>
  <path
     style="opacity:0.992467;fill:#ffffff;stroke-width:836.85534668;paint-order:stroke fill markers;stroke-dasharray:none"
     d="m 517.20034,527.42131 c -3.05543,-3.68157 -1.59073,-30.63557 6.3646,-117.12401 5.68335,-61.78806 10.33337,-113.78867 10.33337,-115.5569 0,-1.76824 9.8958,-3.21498 21.99066,-3.21498 h 21.99066 l -2.49914,26.27119 c -1.37452,14.44915 -2.49913,38.82928 -2.49913,54.17805 0,26.99329 0.36249,28.26947 11.07307,38.98306 l 11.07309,11.07618 56.3153,1.08131 56.31531,1.08131 -1.97605,17.56275 c -1.08682,9.65952 -3.0382,31.13852 -4.33639,47.73111 -1.76871,22.60634 -3.93258,31.74058 -8.63268,36.44068 -10.1787,10.1787 -19.05577,7.91153 -25.0327,-6.39327 -11.40821,-27.3037 -34.05533,-41.57169 -65.98539,-41.57169 -13.71094,0 -24.92613,2.2024 -33.50685,6.57995 -14.19863,7.2436 -33.02128,26.93046 -37.82277,39.55934 -3.50777,9.22613 -7.43829,10.21613 -13.16496,3.31592 z"
     id="path2"
     transform="scale(0.0175)" />
  <path
     style="opacity:0.992467;fill:#ffffff;fill-opacity:1;stroke:none;stroke-width:32.85154152;stroke-opacity:1;paint-order:stroke fill markers;stroke-dasharray:none"
     d="m 598.61189,422.06875 -3.46879,-0.0377 -7.58333,-7.61616 c -4.17083,-4.18889 -8.0794,-8.21499 -8.68572,-8.94688 -3.62961,-4.38131 -4.97814,-8.01716 -5.52788,-14.90398 l -0.0743,-0.93149 0.53974,1.79646 c 4.41703,14.70136 15.79961,25.98795 30.46479,30.20791 l 1.79646,0.51694 -1.99606,-0.0237 c -1.09784,-0.013 -3.55703,-0.0407 -5.46486,-0.0614 z"
     id="path9"
     transform="scale(0.0175)" />
  <path
     style="opacity:0.992467;fill:#ffffff;fill-opacity:1;stroke:none;stroke-width:2.24774998;stroke-dasharray:none;stroke-opacity:1;paint-order:stroke fill markers"
     d="m 9.1051692,6.9537368 c -0.01429,-0.6094499 0.019209,-1.216215 0.019209,-1.8248757"
     id="path10" />
  <path
     style="opacity:0.992467;fill:#ffffff;fill-opacity:1;stroke:none;stroke-width:0;stroke-dasharray:none;stroke-opacity:1;paint-order:stroke fill markers"
     d="m 9.0655696,6.6652122 c 0.046463,0.00135 0.093017,-0.00186 0.1394703,0 0.090952,0.00364 0.1804772,0.00734 0.2716,0.00734 0.014681,0 0.029801,0.00356 0.044043,0 0.014334,-0.00358 0.024193,-0.027914 0.022022,-0.029362 -0.054887,-0.036591 -0.1985955,-0.00456 -0.242238,0.00734 -0.2080972,0.056754 -0.3916437,0.1658666 -0.5725622,0.2789408 -0.063345,0.03959 -0.1275096,0.077858 -0.1908541,0.1174486 -0.014963,0.00935 -0.028724,0.020608 -0.044043,0.029362 -0.00212,0.00121 -0.00953,0.00109 -0.00734,0 0.087249,-0.043625 0.1708026,-0.1136895 0.2495785,-0.1688325 0.070615,-0.049431 0.1411554,-0.098997 0.2128756,-0.1468108 0.1016525,-0.067768 0.2038726,-0.1347906 0.308303,-0.1981947 0.026207,-0.015911 0.053324,-0.030332 0.080746,-0.044043 0.016667,-0.00833 0.034355,-0.014453 0.051384,-0.022022 0.005,-0.00222 0.014681,-0.012812 0.014681,-0.00734 0,0.00692 -0.010529,0.00914 -0.014681,0.014681 -0.017921,0.023894 -0.034816,0.048554 -0.051384,0.073405 -0.032376,0.048564 -0.067694,0.095454 -0.095427,0.1468108 -0.03849,0.071278 -0.069869,0.1461941 -0.1027687,0.2202176 -0.1184537,0.2665208 -0.2094189,0.5409675 -0.3083028,0.8148001 -0.030318,0.083957 -0.042966,0.108443 -0.066065,0.1835136 -0.00297,0.00964 -0.014474,0.022228 -0.00734,0.029362 0.00624,0.00624 0.010142,-0.014456 0.014681,-0.022022 0.03217,-0.053616 0.061322,-0.1090859 0.095427,-0.1614919 C 9.0698379,7.4772136 9.2890149,7.177908 9.5353643,6.9001097 9.6173109,6.8077018 9.6573271,6.7670038 9.7408995,6.6945744 c 0.01184,-0.010261 0.023667,-0.038053 0.036703,-0.029362 0.012876,0.00858 -0.00672,0.030773 -0.014681,0.044043 -0.036312,0.06052 -0.07792,0.1177033 -0.1174486,0.1761731 C 9.3682439,7.2954957 9.4219078,7.1998771 9.1463155,7.6561854 9.083396,7.7603638 9.0221721,7.8655876 8.9628019,7.9718287 8.929168,8.032016 8.8993669,8.0942666 8.867375,8.1553423 8.768391,8.3443122 8.831508,8.2151653 8.771948,8.3461964 8.769688,8.3511764 8.759714,8.3633244 8.764608,8.3608774 8.773898,8.3562374 8.779289,8.3461964 8.78663,8.3388554 8.823333,8.3021524 8.85913,8.2645214 8.8967383,8.2287473 9.0645566,8.0691151 9.0839295,8.0559404 9.2490843,7.913104 9.3051803,7.864589 9.406833,7.7644945 9.476641,7.7295904 c 0.00219,-0.00109 0.00138,0.00532 0,0.00734 C 9.445962,7.7817684 9.412711,7.8247934 9.381214,7.8690601 9.322177,7.9520311 9.2631932,8.0350448 9.205041,8.1186385 9.145742,8.2038815 9.0885162,8.2905588 9.028868,8.3755575 8.96567,8.4656155 8.9095383,8.5395574 8.8453544,8.6251359"
     id="path11" />
  <path
     style="opacity:0.992467;fill:#ffffff;fill-opacity:1;stroke:none;stroke-width:0;stroke-dasharray:none;stroke-opacity:1;paint-order:stroke fill markers"
     d="m 9.6895157,5.5347688 c -0.00913,0.0639 -0.010127,0.079348 -0.029362,0.1541513 -0.067059,0.2607838 -0.1682636,0.5118468 -0.2422378,0.7707571 -0.08879,0.3107629 -0.1626144,0.6264035 -0.242238,0.9395893 -0.1480831,0.5500231 0.023013,-0.099535 -0.080746,0.3303244 -0.00891,0.036925 -0.018927,0.073584 -0.029362,0.1101081 -0.00242,0.00848 -0.00844,0.02826 -0.014681,0.022022 -0.00346,-0.00346 -3.482e-4,-0.0098 0,-0.014681 0.0021,-0.029389 0.00156,-0.059195 0.00734,-0.088086 0.016294,-0.081471 0.037316,-0.1619585 0.058724,-0.2422379 0.1142512,-0.4284415 0.244381,-0.8525013 0.3450055,-1.2845949 0.024924,-0.1070267 0.046055,-0.2149306 0.066065,-0.3229838 0.00359,-0.019397 0.00516,-0.039118 0.00734,-0.058724 2.695e-4,-0.00243 9.083e-4,-0.00961 0,-0.00734 -0.0853,0.2132487 -0.1343816,0.5943999 -0.1614919,0.8001191 -0.035786,0.2715543 -0.067125,0.6470497 -0.080746,0.9249084 -0.022744,0.4639712 0.00456,0.1642804 -0.014681,0.4624541 -0.00174,0.02697 -0.00565,0.053772 -0.00734,0.080746 -9.275e-4,0.014855 0.00754,0.044043 -0.00734,0.044043 -0.00346,0 -0.00643,-0.004 -0.00734,-0.00734 C 9.2498545,8.12393 9.2451145,8.099323 9.2417435,8.074599 9.1870495,7.67351 9.1903595,7.2748908 9.1903595,6.87075 c 0,-0.1835135 0,-0.3670271 0,-0.5505407 0,-0.036703 -0.00183,-0.073451 0,-0.1101081 6.23e-4,-0.012461 0.00675,-0.049165 0.00734,-0.036703 0.00303,0.063546 0,0.1272362 0,0.1908541 0,0.1345766 0,0.2691533 0,0.4037299 0,0.3433945 0.00531,0.5631169 -0.014681,0.9028866 -0.00621,0.1054863 -0.018994,0.2104846 -0.029362,0.3156433 -0.062021,0.5788662 0.00182,-0.042993 -0.029362,0.3156433 -0.00171,0.019653 -0.00555,0.039078 -0.00734,0.058724 -6.65e-4,0.00731 0,0.014681 0,0.022022 0,0.00245 -0.00245,0.00734 0,0.00734 0.00245,0 3.045e-4,-0.00491 0,-0.00734 -0.00215,-0.017168 -0.00528,-0.034205 -0.00734,-0.051384 -0.00528,-0.043999 -0.011684,-0.087917 -0.014681,-0.1321297 -0.00679,-0.1002101 -0.012821,-0.2005395 -0.014681,-0.3009622 -0.00304,-0.1639108 -0.00111,-0.3278814 0,-0.4918163 0.00267,-0.3918557 1.4e-4,-0.667904 0.036703,-1.0496976 3.885e-4,-0.00406 0.047012,-0.2976873 0.058724,-0.3523461 0.00585,-0.027279 0.015748,-0.053562 0.022022,-0.080746 0.0011,-0.00477 -0.00346,-0.018142 0,-0.014681 0.00547,0.00547 0.00773,0.014294 0.00734,0.022022 -0.00209,0.041831 -0.00744,0.083536 -0.014681,0.1247892 -0.017247,0.098311 -0.039519,0.1956746 -0.058724,0.2936216 -0.11901,0.6069511 -0.2348973,1.221829 -0.2348973,1.8424762 0,0.058724 0,0.1174486 0,0.176173 0,0.00979 0,0.019575 0,0.029362 0,0.00245 -0.00245,0.00734 0,0.00734 0.00734,0 0,-0.014681 0,-0.022022 0,-0.053831 -0.00362,-0.1077832 0,-0.1614919 0.011071,-0.1642221 0.021377,-0.3287899 0.044043,-0.4918164 0.040993,-0.2948356 0.093453,-0.5880145 0.146811,-0.8808651 0.1023158,-0.5615477 0.1552384,-0.7911314 0.2642594,-1.2845949 0.1129405,-0.5112042 -0.013908,0.04829 0.080746,-0.3303243 0.00361,-0.014439 -0.00318,-0.033519 0.00734,-0.044043 0.00713,-0.00713 0.00787,0.019288 0.00734,0.029362 -0.00195,0.036976 -0.00791,0.073705 -0.014681,0.110108 -0.012816,0.068885 -0.03169,0.1365657 -0.044043,0.2055353 -0.04725,0.2638116 -0.058047,0.3864204 -0.073405,0.6679893 -0.034269,0.6282602 -0.020877,1.2619553 0.058724,1.8865194 0.015468,0.1213659 0.061967,0.3559943 0.088086,0.4918164"
     id="path12" />
  <path
     style="opacity:0.992467;fill:#ffffff;fill-opacity:1;stroke:none;stroke-width:2.625;stroke-dasharray:none;stroke-opacity:1;paint-order:stroke fill markers"
     d="m 9.0508885,8.1259801 c 0,0.1981947 0,0.3963894 0,0.594584 0,0.058724 0.00143,0.1174662 0,0.1761731 -0.00222,0.090884 -0.014681,0.1807139 -0.014681,0.2716 0,0.018109 -0.014096,0.096597 -0.00734,0.110108 0.00623,0.012459 0.040407,0.011937 0.051384,0.014681 0.078681,0.01967 0.067969,-0.023926 0.1174487,-0.073405 0.023277,-0.023277 0.048116,-0.044991 0.073405,-0.066065 0.01617,-0.013475 0.035868,-0.02248 0.051384,-0.036703 0.014087,-0.012913 0.023918,-0.029839 0.036703,-0.044043 0.00926,-0.010288 0.020247,-0.018946 0.029362,-0.029362 0.00809,-0.00925 0.036703,-0.042762 0.036703,-0.058724 0,-0.015783 0.037714,-0.098354 0.044043,-0.1101081 0.1304271,-0.2422219 0.2772889,-0.2047643 0.4991568,-0.3083027 0.059259,-0.027654 0.113169,-0.079676 0.176173,-0.095427"
     id="path13" />
  <path
     style="opacity:0.992467;fill:#ffffff;fill-opacity:1;stroke:none;stroke-width:2.625;stroke-dasharray:none;stroke-opacity:1;paint-order:stroke fill markers"
     d="m 9.2417426,5.9384987 c -0.00245,-0.00979 -0.00489,-0.019575 -0.00734,-0.029362"
     id="path14" />
  <path
     style="opacity:0.992467;fill:#ffffff;fill-opacity:1;stroke:none;stroke-width:2.625;stroke-dasharray:none;stroke-opacity:1;paint-order:stroke fill markers"
     d="m 9.3518507,5.3585957 c -0.00479,0.3475619 -0.014681,0.6946743 -0.014681,1.0423571 0,0.019098 0.010483,0.1656898 -0.00734,0.1835136"
     id="path15" />
  <path
     style="opacity:0.992467;fill:#ffffff;fill-opacity:1;stroke:none;stroke-width:8.75;stroke-dasharray:none;stroke-opacity:1;paint-order:stroke fill markers"
     d="m 9.2417426,6.2247798 c -0.014524,-0.1232436 -0.00734,-0.249854 -0.00734,-0.3743678 0,-0.033049 0.0041,-0.070001 0,-0.1027675 -0.00266,-0.021312 -0.012017,-0.044753 -0.014681,-0.066065 -9.1e-4,-0.00728 0.00178,-0.0149 0,-0.022022 -0.00199,-0.00796 -0.012348,-0.00467 -0.00734,-0.014681 0.01213,-0.02426 0.012258,-0.044116 0.022022,-0.073405 0.020751,-0.062252 0.080746,-0.1698053 0.080746,-0.2348974"
     id="path16" />
  <path
     style="opacity:0.992467;fill:#ffffff;fill-opacity:1;stroke:none;stroke-width:8.75;stroke-dasharray:none;stroke-opacity:1;paint-order:stroke fill markers"
     d="m 9.2490832,6.0192445 c 0,-0.063555 -0.00122,-0.049386 0.00734,-0.1321297 0.011463,-0.1108107 0.038986,-0.2190647 0.044043,-0.3303244 0.00111,-0.024443 -0.00144,-0.048979 0,-0.073405 0.00202,-0.034312 0.011688,-0.067984 0.00734,-0.1027677 -0.00826,-0.066064 -0.00734,-0.1312558 -0.00734,-0.1981947 0,-0.026915 0,-0.053831 0,-0.080746 0,-0.00489 -0.00346,-0.011221 0,-0.014681 0.00865,-0.00865 0.024591,0.00173 0.036703,0 0.00999,-0.00143 0.019575,-0.00489 0.029362,-0.00734 0.100477,-0.025119 0.1981527,-0.024689 0.3009622,-0.029362 0.2043428,-0.00929 -0.03991,-0.00734 0.1321298,-0.00734 0.01632,0 0.3408578,-0.00415 0.3523458,0.00734 0.0069,0.00689 -0.0055,0.018433 -0.0073,0.022022 -0.0044,0.00875 0.0014,0.019673 0,0.029362 -0.006,0.042258 -0.01072,0.018491 -0.01468,0.066065 -0.0014,0.017069 0.0012,0.034299 0,0.051384 -0.0025,0.034516 -0.01222,0.068252 -0.01468,0.1027676 -0.0045,0.062761 0,0.1279811 0,0.190854 0,0.1663856 0,0.3327712 0,0.4991569 0,0.056277 0,0.1125551 0,0.1688325 0,0.019121 0.0065,0.053882 0,0.073405 -0.01005,0.030158 -0.0233,0.057785 -0.02936,0.088087 -0.007,0.034849 -0.0061,0.078213 -0.02202,0.1101082"
     id="path17" />
  <path
     style="opacity:0.992467;fill:#ffffff;fill-opacity:1;stroke:none;stroke-width:8.75;stroke-dasharray:none;stroke-opacity:1;paint-order:stroke fill markers"
     d="m 9.3591913,5.7329634 c -0.00939,-0.1285732 0.013845,-0.2619349 -0.00734,-0.3890488 -0.00121,-0.00724 0.00328,-0.015456 0,-0.022022 -0.00771,-0.015423 -0.014538,1.4e-4 -0.022022,-0.00734 -0.010089,-0.010089 -0.014681,-0.024469 -0.022022,-0.036703 -0.00233,-0.00388 -0.016171,-0.035213 -0.022022,-0.029362 -0.00943,0.00943 -0.016153,0.053843 -0.022022,0.073405 -0.016424,0.054747 -0.043121,0.1068822 -0.058724,0.161492 -0.01323,0.046306 0.016546,0.1030083 0.022022,0.1468108 0.00195,0.015595 -0.00492,0.041584 0.014681,0.051384 0.010298,0.00515 0.03993,0 0.051384,0 0.080334,0 0.055032,-0.042174 0.095427,-0.1027676 0.030265,-0.045397 0.064253,-0.080437 0.1101081,-0.110108 0.1009053,-0.065292 0.2125628,-0.095302 0.3229838,-0.1394705 0.039676,-0.01587 0.079228,-0.032273 0.1174486,-0.051384 0.012761,-0.00638 0.023294,-0.017146 0.036703,-0.022022 0.025709,-0.00935 0.054041,-0.00875 0.080746,-0.014681 0.03076,-0.00684 0.05756,-0.00298 0.08809,-0.00734 0.01532,-0.00219 0.02967,-0.00893 0.04404,-0.014681 0.01739,-0.00695 0.0367,-0.017766 0.0367,-0.036703 0,-0.052293 -0.0546,-0.044043 -0.09543,-0.044043 -0.0023,0 -0.02101,-0.00152 -0.02202,0 -0.0186,0.027898 -0.03483,0.1176353 -0.04404,0.1468108 -0.007,0.022135 -0.01604,0.043636 -0.02202,0.066065 -0.0038,0.014381 -0.0026,0.029923 -0.0073,0.044043 -0.0174,0.052187 -0.01468,-0.00127 -0.01468,0.036703 0,0.00734 -0.0023,-0.015058 0,-0.022022 0.0052,-0.015572 0.01593,-0.028803 0.02202,-0.044043 0.01999,-0.049964 0.03723,-0.1022445 0.05138,-0.1541514 0.0059,-0.021629 0.01399,-0.059418 0.02202,-0.051384 0.0081,0.00808 0.01362,0.085343 0.01468,0.095427 0.0085,0.081112 0.01468,0.1608092 0.01468,0.2422378"
     id="path18" />
  <path
     style="opacity:0.992467;fill:#ffffff;fill-opacity:1;stroke:none;stroke-width:8.75;stroke-dasharray:none;stroke-opacity:1;paint-order:stroke fill markers"
     d="m 10.122608,5.0429524 c 0,0.075852 0,0.1517046 0,0.2275569 0,0.073405 0,0.1468108 0,0.2202161 0,0.012234 0,0.024469 0,0.036703 0,0.00734 -0.0066,0.025304 0,0.022022 0.0098,-0.00489 0.0109,-0.019094 0.01468,-0.029362 0.01337,-0.036303 0.02447,-0.073405 0.0367,-0.110108 0.06045,-0.1813531 0.08446,-0.23145 0.117449,-0.4257514 0.009,-0.05329 0.01019,-0.1076261 0.01468,-0.1614919 0.0029,-0.034225 0.0041,-0.068579 0.0073,-0.1027677 0.0016,-0.017224 0.0073,-0.034082 0.0073,-0.051384 0,-0.00245 -0.0063,-0.00222 -0.0073,0 -0.01428,0.030944 -0.02474,0.063516 -0.0367,0.095427 -0.02474,0.065965 -0.04842,0.1323236 -0.07341,0.1981946 -0.0679,0.1790021 -0.145002,0.3542597 -0.2055356,0.5358595 -0.00734,0.022022 -0.015195,0.043879 -0.022022,0.066065 -0.00601,0.019527 -0.00933,0.036703 -0.00734,0.036703 0.029906,0 0.1606686,-0.090762 0.1688326,-0.095427 0.04375,-0.025003 0.148129,-0.078927 0.198194,-0.1027675 0.04735,-0.022546 0.117156,-0.052263 0.12479,-0.029362 0.01961,0.058842 -0.02525,0.1894361 -0.0367,0.2495785 -0.0041,0.021766 -0.004,0.044165 -0.0073,0.066065 -0.0015,0.00997 -0.0098,0.019575 -0.0073,0.029362 0.008,0.031936 0.0507,-0.042227 0.0734,-0.066065 0.06829,-0.071702 0.139323,-0.1393061 0.205535,-0.2128757 0.0069,-0.00772 0.01738,-0.012736 0.02202,-0.022022 0.0044,-0.00875 -0.02061,-0.00438 -0.02936,0 -0.01999,0.01 -0.18866,0.1101081 -0.198195,0.1101081 -0.01009,0 0.0028,-0.020339 0.0073,-0.029362 0.0059,-0.011785 0.0088,-0.024917 0.01468,-0.036703 0.0043,-0.00862 0.02505,-0.028083 0.02936,-0.036703 0.0035,-0.00692 -0.01558,0.00305 -0.02202,0.00734 -0.02202,0.014681 -0.04453,0.02866 -0.06607,0.044043 -0.0072,0.00513 -0.02202,0.023503 -0.02202,0.014681 0,-0.03589 0.05304,-0.1198331 0.04404,-0.1468108 -0.0028,-0.00837 -0.01418,-0.018734 -0.02202,-0.014681 -0.06751,0.034921 -0.129002,0.080609 -0.190854,0.1247894 C 9.8339896,5.754546 9.4385728,6.0862394 9.0288521,6.4009524 8.892351,6.505801 8.8288941,6.5486352 8.6911871,6.6358498 c -0.024765,0.015685 -0.097833,0.07725 -0.088086,0.022022 0.01677,-0.095028 0.095391,-0.2034687 0.1468108,-0.2716 0.1173754,-0.1555034 0.237103,-0.281132 0.374382,-0.4184109 0.1041934,-0.1041935 0.1039993,-0.1008168 0.1981946,-0.1761731 0.012234,-0.00979 0.024667,-0.019332 0.036703,-0.029362 0.00266,-0.00222 0.00979,-0.00979 0.00734,-0.00734 -0.2070421,0.2070421 -0.3958116,0.4273379 -0.5725623,0.6606488 -0.022163,0.029255 -0.045706,0.057548 -0.066065,0.088086 -0.013974,0.020961 -0.026278,0.043131 -0.036703,0.066065 -0.00203,0.00445 -0.00423,0.017147 0,0.014681 0.031703,-0.018493 0.05968,-0.042823 0.088087,-0.066065 0.079289,-0.064873 0.1560965,-0.1327291 0.2348974,-0.1981947 0.080249,-0.066668 0.1615638,-0.1320419 0.242238,-0.1981945 0.2063362,-0.1691958 0.044417,-0.03944 0.2202161,-0.176173 0.012367,-0.00962 0.042521,-0.043909 0.036703,-0.029362 -0.010361,0.025903 -0.032899,0.045169 -0.051384,0.066065 -0.037848,0.042784 -0.077703,0.083762 -0.1174486,0.1247893 -0.079403,0.081964 -0.1615334,0.1615334 -0.242238,0.2422378"
     id="path19" />
  <path
     style="opacity:0.992467;fill:#ffffff;fill-opacity:1;stroke:none;stroke-width:17.5;stroke-dasharray:none;stroke-opacity:1;paint-order:stroke fill markers"
     d="m 9.2123805,5.9384987 c 0,0.1345765 0,0.2691531 0,0.4037297 0,0.00489 0,-0.00979 0,-0.014681 0,-0.019575 0,-0.039149 0,-0.058724 0,-0.053831 -0.00299,-0.1077442 0,-0.161492 0.00183,-0.033021 0.00734,-0.06246 0.00734,-0.095427"
     id="path20" />
  <path
     style="opacity:0.992467;fill:#ffffff;fill-opacity:1;stroke:none;stroke-width:17.5;stroke-dasharray:none;stroke-opacity:1;paint-order:stroke fill markers"
     d="m 9.0537318,7.8204667 c 0,0.2120694 0,0.4241387 0,0.6362083 0,0.048235 0.00949,0.1091414 0,0.156605 -0.00405,0.020234 -0.016657,0.0383 -0.019576,0.058727 -0.00438,0.030674 8.75e-5,0.068235 -0.00979,0.097878 -0.00146,0.00438 -0.00833,0.00541 -0.00979,0.00979 -0.00413,0.012381 0.00256,0.026354 0,0.039151 -0.00457,0.022856 -0.010539,0.040653 -0.019576,0.058727 -0.011029,0.022059 0,0.1061442 0,0.1370296 0,0.028681 -0.017355,0.057822 -0.00979,0.08809 0.00835,0.033383 0.042855,0.059522 0.058727,0.08809 0.017899,0.032218 0.031008,0.079125 0.068515,0.097878 0.004,0.002 0.046197,0.00274 0.048939,0 3.692e-4,-3.693e-4 0.00922,-0.047806 0.00979,-0.048939 0.010035,-0.02007 0.064544,-0.1134826 0.078303,-0.1272416 0.025249,-0.025249 0.075063,-0.034967 0.1076659,-0.048939 0.044951,-0.019265 0.086747,-0.058055 0.1272418,-0.078303 0.03793,-0.018965 0.1576634,-0.1627427 0.1957562,-0.1957564 0.044139,-0.038254 0.14408,-0.1158114 0.1957564,-0.1468173 0.084777,-0.050866 0.014713,0.00977 0.08809,-0.039151 0.033015,-0.02201 0.066926,-0.052509 0.097878,-0.078303 0.03247,-0.027058 0.02227,-0.030713 0.05873,-0.048939 0.01958,-0.00979 0.03841,-0.021235 0.05873,-0.029363 0.0091,-0.00364 0.02061,0.00438 0.02936,0 0.0041,-0.00206 0.0065,-0.00653 0.0098,-0.00979 0.0065,-0.00326 0.0128,-0.00708 0.01958,-0.00979 0.06216,-0.024865 0.204364,-0.049529 0.264271,-0.019576 0.0088,0.00438 0.02008,-0.0031 0.02936,0 0.0044,0.00146 0.0065,0.00653 0.0098,0.00979 0.0065,0.00326 0.0125,0.00802 0.01958,0.00979 0.0063,0.00158 0.01374,-0.00292 0.01957,0 0.0029,0.00146 0,0.00653 0,0.00979"
     id="path21" />
  <path
     style="opacity:0.992467;fill:#ffffff;fill-opacity:1;stroke:none;stroke-width:17.5;stroke-dasharray:none;stroke-opacity:1;paint-order:stroke fill markers"
     d="m 9.2984229,9.1222463 c 0,0.00746 -0.030981,0.05218 -0.039151,0.068515 -0.00513,0.010269 0.00781,0.041129 0,0.048939 -0.00375,0.00374 -0.045509,0 -0.048939,0 -0.029504,0 -0.1340362,0.011284 -0.1566052,0 -0.041258,-0.020629 -0.099622,-0.033207 -0.1468172,-0.048939 -0.00619,-0.00206 -0.014966,0.00461 -0.019576,0 -2.39e-4,-2.389e-4 0.018859,-0.1138639 0.019576,-0.1174539 0.010672,-0.053361 0.016187,-0.1204648 0.039151,-0.1663928 0.00255,-0.0051 0.00938,-0.2658689 0.00979,-0.2740589 0.00457,-0.091362 0.01512,-0.1822669 0.00979,-0.2740589 l 0.2251198,0.8809036"
     id="path22" />
  <path
     style="opacity:0.992467;fill:#ffffff;fill-opacity:1;stroke:none;stroke-width:17.5;stroke-dasharray:none;stroke-opacity:1;paint-order:stroke fill markers"
     d="m 9.0145806,8.3000698 c -0.00326,0.022838 -0.00835,0.04549 -0.00979,0.068515 -0.00427,0.068381 0.00311,0.1371001 0,0.2055442 -0.00347,0.076303 -0.019962,0.1499095 -0.029363,0.2251198 -0.00202,0.016187 0.00396,0.033113 0,0.048939 -0.00652,0.026069 -0.022671,0.051531 -0.029363,0.078303 -0.021968,0.087873 -9.817e-4,0.00981 -0.00979,0.097878 -0.00621,0.062092 -0.020327,0.1325239 -0.00979,0.1957564 0.00339,0.020354 0.013907,0.038886 0.019576,0.058727 0.00572,0.020017 0.010212,0.059575 0.019576,0.078303 0.018473,0.036947 0.060285,0.015158 0.097878,0.00979 0.00615,-8.785e-4 0.095268,-0.016965 0.097878,-0.019576 0.00231,-0.00231 -0.00231,-0.00748 0,-0.00979 0.00461,-0.00461 0.013739,0.00292 0.019575,0 0.011402,-0.0057 0.017962,-0.013875 0.029364,-0.019576 0.00584,-0.00292 0.013739,0.00292 0.019575,0 0.033089,-0.016545 0.060548,-0.068288 0.078303,-0.097878 0.00609,-0.010145 0.051506,-0.097878 0.019576,-0.097878"
     id="path23" />
  <path
     style="opacity:0.992467;fill:#ffffff;fill-opacity:1;stroke:none;stroke-width:17.5;stroke-dasharray:none;stroke-opacity:1;paint-order:stroke fill markers"
     d="m 9.1809734,9.3865177 c 0.00653,-0.019576 0.010348,-0.040271 0.019576,-0.058727 0.00413,-0.00825 0.014828,-0.011662 0.019576,-0.019576 0.046945,-0.078242 0.048939,-0.2340065 0.048939,-0.3229978"
     id="path24" />
  <path
     style="opacity:0.992467;fill:#ffffff;fill-opacity:1;stroke:none;stroke-width:17.5;stroke-dasharray:none;stroke-opacity:1;paint-order:stroke fill markers"
     d="m 9.3375786,9.4550323 c 0.00527,-0.038916 -0.010055,-0.04934 -0.029364,-0.078302 -0.016027,-0.02404 -0.045808,-0.042676 -0.058727,-0.068515 -0.021814,-0.043628 0.034106,-0.077999 0.048939,-0.1076659 0.00146,-0.00292 -0.00231,-0.00748 0,-0.00979 0.00599,-0.00599 0.022011,-0.00732 0.029363,-0.019576 0.00751,-0.012511 0.012337,-0.026483 0.019576,-0.039151 0.017974,-0.031454 0.037461,-0.059736 0.058727,-0.08809 0.00258,-0.00344 0.02244,-0.026499 0.019576,-0.029363 -0.00878,-0.00878 -0.039151,-4.55e-4 -0.039151,0.00979"
     id="path25" />
  <path
     style="opacity:0.992467;fill:#ffffff;fill-opacity:1;stroke:none;stroke-width:17.5;stroke-dasharray:none;stroke-opacity:1;paint-order:stroke fill markers"
     d="m 9.2690638,9.1222465 c -0.043057,0.069386 -0.062102,0.1371978 -0.1076659,0.2055442 -0.019331,0.028997 -0.034655,0.048939 -0.029364,0.048939 0.00326,0 -0.00146,-0.00687 0,-0.00979 0.00526,-0.010522 0.012354,-0.020078 0.019576,-0.029363 0.056752,-0.072967 0.1080178,-0.1461656 0.156605,-0.2251198 0.012633,-0.020528 0.032899,-0.056915 0.048939,-0.078303 0.00554,-0.00738 0.015449,-0.011322 0.019576,-0.019576 0.00146,-0.00292 -0.00231,-0.00748 0,-0.00979 0.00692,-0.00692 0.019868,0.00237 0.029363,0 0.00708,-0.00177 0.012498,-0.00802 0.019576,-0.00979 0.069582,-0.017395 0.028588,0.042969 0.00979,0.08809 -0.061592,0.1478209 -0.1172136,0.2960664 -0.1859686,0.4404517 -0.013815,0.029011 -0.026494,0.058556 -0.039151,0.08809 -0.00862,0.020117 -0.00748,0.058727 -0.029364,0.058727 -0.00326,0 0,-0.00653 0,-0.00979 0,-0.026101 0,-0.052202 0,-0.078303 0,-0.096372 5.722e-4,-0.1888297 0.019576,-0.2838466 0.00326,-0.016313 0.00235,-0.034059 0.00979,-0.048939 0.00206,-0.00413 0.01305,-0.00653 0.00979,-0.00979 -0.0045,-0.0045 -0.021641,0.035559 -0.029363,0.058727 -0.00695,0.020865 -0.013642,0.050713 -0.019576,0.068515 -0.00146,0.00438 -0.01305,0.00653 -0.00979,0.00979 0.00157,0.00157 0.022726,-0.025214 0.039151,-0.048939 0.020088,-0.029016 0.039151,-0.058727 0.058727,-0.08809 0.1078652,-0.1617982 0.1903305,-0.3293967 0.264271,-0.5089665 0.011111,-0.026984 0.039151,-0.1074843 0.039151,-0.078303"
     id="path26" />
  <path
     style="opacity:0.992467;fill:#ffffff;fill-opacity:1;stroke:none;stroke-width:17.5;stroke-dasharray:none;stroke-opacity:1;paint-order:stroke fill markers"
     d="m 9.308215,9.2886395 c 0,-0.1402921 0,-0.2805841 0,-0.4208762"
     id="path27" />
  <path
     style="opacity:0.992467;fill:#ffffff;fill-opacity:1;stroke:none;stroke-width:17.5;stroke-dasharray:none;stroke-opacity:1;paint-order:stroke fill markers"
     d="m 9.4158811,8.1630404 c -0.129437,-0.02127 -0.2695288,0.00926 -0.3817248,0.078302 -0.048573,0.029891 -0.086399,0.089782 -0.097878,0.078303 -0.00902,-0.00902 0.022834,-0.1155427 0.039151,-0.1468173 0.1080277,-0.2070528 0.2932561,-0.3716216 0.4698154,-0.5187542 0.050128,-0.041773 0.107835,-0.074103 0.156605,-0.1174539 0.078135,-0.069453 0.037055,-0.2698533 0.029363,-0.3621492 -0.0013,-0.015646 -0.01139,-0.1174539 0.00979,-0.1174539"
     id="path28" />
  <path
     style="opacity:0.992467;fill:#ffffff;fill-opacity:1;stroke:none;stroke-width:17.5;stroke-dasharray:none;stroke-opacity:1;paint-order:stroke fill markers"
     id="path29"
     d="m 9.9244147,6.7192258 c 0.00871,0.038108 0.007,0.077523 0.010547,0.1162158 0.00108,0.011759 0.00286,0.023442 0.00429,0.035163 0.00394,0.013254 0.00662,0.026948 0.011817,0.039762 0.032563,0.080335 0.09959,0.1459208 0.1599543,0.2058796 0.05404,0.050467 0.109338,0.099787 0.168068,0.144769 0.08723,0.05829 0.0545,0.037045 0.248507,0.1414806 0.0053,0.00287 0.04025,0.010157 0.04504,0.011336 0.01727,0.00425 0.0344,0.00902 0.05163,0.013407 0.03097,0.009 0.06133,0.019815 0.0922,0.029105 0.0027,0.00308 0.0066,4.813e-4 0.0097,0.00169 0.0012,4.603e-4 0.0015,0.0023 0.0027,0.00265 0.0045,0.00135 0.0095,-5.022e-4 0.01422,3.5e-5 0.0031,3.588e-4 0.0061,0.00127 0.0092,0.0019 0.01118,0.00243 0.02307,0.00201 0.03414,0.00497 0.004,0.00108 0.01121,0.0048 0.01514,0.00673 -0.07287,-0.046636 -0.145743,-0.093272 -0.218614,-0.1399077 -0.0012,-0.00297 -3.81e-4,-0.0087 -0.0036,-0.00891 -0.01159,-7.507e-4 -0.02273,0.00485 -0.03422,0.00646 -0.02014,0.00281 -0.04037,0.00511 -0.06064,0.00677 -0.09109,0.00747 -0.182325,0.0075 -0.273633,0.00756 -0.06799,-0.00241 -0.100016,-0.00273 -0.165942,-0.00798 -0.01809,-0.00144 -0.080269,-0.00616 -0.1019363,-0.015014 -0.00742,-0.00304 -0.025132,-0.019809 -0.018267,-0.015661 0.073486,0.044395 0.1455903,0.091038 0.2183853,0.1365567 0.01154,-0.00459 0.02269,-0.010314 0.03462,-0.01376 0.05176,-0.01495 0.09909,-0.021383 0.153073,-0.027049 0.09135,-0.00959 0.182797,-0.011082 0.274528,-0.011571 0.03648,9.678e-4 0.07824,7.805e-4 0.115106,0.00572 0.007,9.415e-4 0.01376,0.00342 0.02065,0.00512 -0.07465,-0.049024 -0.145069,-0.1051818 -0.22394,-0.1470721 -0.01126,-0.00598 -0.02474,0.00633 -0.03734,0.0083 -0.01938,0.00302 -0.03898,0.00443 -0.05847,0.00664 -0.06752,0.00585 -0.135303,0.00575 -0.202997,0.00506 -0.0171,-1.75e-4 -0.0342,-0.00117 -0.05129,-7.682e-4 -0.0114,2.66e-4 -0.02555,-0.0048 -0.03409,0.00276 -0.0085,0.00749 -0.0044,0.022182 -0.0066,0.033274 0.02238,0.015186 0.04375,0.031959 0.06713,0.045557 0.359416,0.2090994 0.152475,0.083283 0.379628,0.2089628 0.04292,0.024463 0.08584,0.048926 0.128766,0.07339 5.39e-4,0.001 6.53e-4,0.0024 0.0016,0.00301 0.03483,0.021815 0.07024,0.04267 0.105365,0.064006 0.09425,0.05757 0.229189,0.1413708 0.313599,0.180124 0.01593,0.00731 0.04225,0.014548 0.05258,3.885e-4 0.03572,-0.048945 -0.04236,-0.1891082 -0.04988,-0.2066379 -0.02313,-0.053908 -0.04765,-0.107209 -0.07147,-0.1608136 -0.07049,-0.1560607 -0.139491,-0.3127772 -0.206471,-0.4703773 -5.02e-4,-0.00118 -0.06948,-0.1653445 -0.07859,-0.1851815 -0.0056,-0.012165 -0.01242,-0.023712 -0.01863,-0.035569 -0.07534,-0.034816 -0.143628,-0.09439 -0.226008,-0.1044476 -0.02552,-0.00311 -0.0023,0.051727 0.0019,0.077089 0.006,0.036712 0.01823,0.07216 0.02855,0.107906 0.0211,0.073069 0.05989,0.1927457 0.08523,0.2636073 0.01532,0.042845 0.03227,0.085091 0.04841,0.1276366 0.04353,0.1004326 0.08831,0.2043952 0.169333,0.281405 0.02235,0.021246 0.04717,0.040239 0.0738,0.055792 0.230286,0.1344996 0.169797,0.1119804 0.331728,0.1530384 0.101466,0.013408 0.05241,0.00874 0.147083,0.014765 0,0 -0.17288,-0.1265469 -0.17288,-0.1265469 v 0 c -0.08357,-2.905e-4 -0.03979,0.00208 -0.131239,-0.00854 -0.02641,-0.00706 -0.08078,-0.048468 -0.07922,-0.021178 0.0019,0.033303 0.07201,0.026265 0.08134,0.05829 0.009,0.030922 -0.05551,-0.033245 -0.0801,-0.054041 -0.0906,-0.0766 -0.147953,-0.1813455 -0.197497,-0.2869522 -0.0167,-0.042446 -0.03533,-0.084183 -0.05011,-0.1273377 -0.02665,-0.077827 -0.05002,-0.1656914 -0.05893,-0.2480289 -0.0032,-0.029639 -0.0032,-0.059666 -0.0015,-0.089425 8.13e-4,-0.013567 0.01923,-0.030561 0.0092,-0.039724 -0.05429,-0.049552 -0.123131,-0.080308 -0.184697,-0.1204623 0.01637,0.014831 0.0351,0.027421 0.04912,0.044494 0.03938,0.047955 0.09926,0.1559883 0.12553,0.2050597 0.08135,0.1519245 0.153195,0.3089893 0.21131,0.4713095 0.03953,0.1379794 0.04375,0.1230871 0.0537,0.248132 0.0011,0.013399 0.005,0.028139 -6.49e-4,0.04032 -0.0032,0.00693 -0.02728,0.00232 -0.02167,0.00751 0.0286,0.026517 0.107557,0.025624 0.09827,0.063504 -0.0091,0.037211 -0.06661,-0.037879 -0.09991,-0.056819 -0.168666,-0.098456 -0.337104,-0.1973113 -0.506258,-0.2949259 -0.04435,-0.025596 -0.08909,-0.050533 -0.133246,-0.076473 -0.02429,-0.014271 0.04978,0.026493 0.07365,0.041461 0.01246,0.00782 -0.02624,-0.013307 -0.03937,-0.01996 -0.0074,7.157e-4 -0.01904,0.00887 -0.02231,0.00215 -0.0031,-0.0063 0.01235,-0.00706 0.01919,-0.00858 0.01393,-0.00308 0.02829,-0.00382 0.0425,-0.00507 0.06662,-0.00587 0.133645,-0.00709 0.200474,-0.00713 0.02347,6.195e-4 0.04696,6.545e-4 0.07041,0.00186 0.01815,9.31e-4 0.06664,0.017915 0.05433,0.00454 -0.05369,-0.058329 -0.122781,-0.1003998 -0.186269,-0.1478778 -0.0019,-0.00145 -1.8e-5,0.00598 -0.0023,0.00689 -0.01788,0.00721 -0.07867,0.012133 -0.08891,0.013287 -0.089,0.00746 -0.177981,0.013264 -0.267175,0.017972 -0.06105,0.00322 -0.12225,0.00425 -0.1831833,0.00926 -0.020082,0.00165 -0.039983,0.00504 -0.059975,0.00756 0.063227,0.051988 0.1249163,0.1059059 0.1896823,0.1559647 0.0028,0.00216 0.007,-0.00103 0.01055,-0.0012 0.01049,-5.005e-4 0.02101,-4.62e-4 0.03151,-8.067e-4 0.06658,-0.00219 0.133124,-0.00591 0.199767,-0.00607 0.09726,-4.27e-4 0.194278,1.225e-4 0.291442,0.00512 0.02588,0.00133 0.05173,0.00323 0.07757,0.00507 0.01718,0.00122 0.03436,0.00576 0.0515,0.00413 0.01094,-0.00104 0.02049,-0.00797 0.03074,-0.011949 -0.284741,-0.1878781 -0.130393,-0.1231351 -0.26667,-0.1514207 -0.0079,-0.0015 -0.01201,-0.00186 -0.01932,-0.0046 -0.0021,-7.822e-4 -0.0039,-0.00233 -0.006,-0.00287 -0.0036,-8.925e-4 -0.0081,2.45e-4 -0.01169,-0.00175 -0.02678,-0.00554 -0.0531,-0.013188 -0.0797,-0.01949 -0.02577,-0.00681 -0.05186,-0.013311 -0.07694,-0.022435 -0.0071,-0.00257 -0.02725,-0.01245 -0.02082,-0.00857 0.154858,0.093456 0.265014,0.1494839 0.173038,0.1023108 -0.06749,-0.043424 -0.128277,-0.096291 -0.188554,-0.1490353 -0.0582,-0.054674 -0.124358,-0.1152529 -0.155064,-0.1908842 -0.0045,-0.011096 -0.0069,-0.022943 -0.01031,-0.034415 -0.0011,-0.010814 -0.0029,-0.021583 -0.0034,-0.032443 -0.0018,-0.035062 0.0013,-0.071377 0.0088,-0.1056138 z" />
  <path
     style="opacity:0.992467;fill:#ffffff;fill-opacity:1;stroke:none;stroke-width:17.5;stroke-dasharray:none;stroke-opacity:1;paint-order:stroke fill markers"
     id="path30"
     d="m 11.826975,7.4850552 c 0.09164,-0.014042 0.185034,-0.012958 0.277528,-0.014327 0.136989,-0.00246 0.273988,-0.00188 0.410857,0.00445 0.03368,0.0012 0.06737,0.00201 0.101057,0.00284 0.01014,2.52e-4 0.02105,0.00186 0.03095,-8.908e-4 -0.07212,-0.051089 -0.143025,-0.1039332 -0.216356,-0.1532666 -0.0023,-0.00156 -0.0053,0.00179 -0.0081,0.00229 -0.0046,8.33e-4 -0.0093,0.00119 -0.01401,0.00168 -0.0318,0.00333 -0.06361,0.00472 -0.09555,0.00609 -0.07185,0.00496 -0.143805,-0.00576 -0.215551,-0.00151 -0.0055,0.0028 -0.01218,0.00395 -0.01642,0.0084 -0.02181,0.022923 -0.01175,0.06212 -0.0062,0.08839 0.0052,0.024374 0.01979,0.076586 0.02598,0.099309 0.02531,0.091563 0.04934,0.1834775 0.07093,0.2759922 0.02321,0.1087163 -0.0065,0.05152 0.238411,0.1459515 0.008,0.00307 0.0067,-0.015691 0.0097,-0.023655 0.02613,-0.068201 -0.0072,0.013141 0.02475,-0.063277 0.02623,-0.056397 0.05554,-0.1117844 0.09552,-0.1597111 0.02358,-0.023931 0.02719,-0.02469 0.02069,-0.060886 -0.01538,-0.053177 -0.03023,-0.106336 -0.03899,-0.1610529 -0.0011,-0.012227 -0.0035,-0.02428 -0.0052,-0.036416 -3.39e-4,-0.00243 0.0013,-0.00603 -7.68e-4,-0.00733 -0.2266,-0.1405996 -0.167949,-0.198393 -0.236491,-0.1220575 -0.0021,0.00464 -0.0049,0.00903 -0.0064,0.013912 -0.0034,0.01133 -0.0068,0.043653 -0.0078,0.051771 -0.002,0.015878 -0.0038,0.03178 -0.006,0.047632 -0.01019,0.073558 -0.0097,0.065627 -0.02414,0.1442154 -0.0061,0.029612 -0.01233,0.059198 -0.01831,0.088835 -0.01673,0.082929 -0.0238,0.117324 -0.03693,0.2019743 -0.01568,0.1010098 -0.02789,0.2026178 -0.04114,0.303967 -0.011,0.1007203 -0.03406,0.2000801 -0.03788,0.3014935 -0.0031,0.067569 0.0079,0.1346138 0.0115,0.2018927 0.0012,0.023154 0.0014,0.046351 0.0021,0.069527 -3.87e-4,0.1087525 -0.01515,0.2170956 -0.0401,0.3228477 -0.01244,0.052689 -0.01857,0.069743 -0.03393,0.1192308 -0.01127,0.031388 -0.01429,0.04286 -0.0279,0.070999 -0.0031,0.00644 -0.0063,0.012926 -0.01035,0.0188 -0.002,0.00294 -0.0047,0.00911 -0.0078,0.00735 -0.0034,-0.00191 -0.0031,-0.013273 3.92e-4,-0.01157 0.07504,0.036897 0.146837,0.080044 0.220256,0.1200661 -0.0025,-0.00882 -0.0057,-0.017468 -0.0075,-0.026455 -0.01024,-0.051585 -0.0157,-0.1113978 -0.01905,-0.1622873 -0.0034,-0.051362 -0.006,-0.1027906 -0.0073,-0.1542469 -0.0052,-0.2014535 -0.0012,-0.2152409 0.0066,-0.4240873 0.01705,-0.2553703 0.04611,-0.5102102 0.09523,-0.7614999 0.01772,-0.090649 0.02415,-0.1129191 0.0447,-0.1960371 0.01083,-0.040085 0.02145,-0.080598 0.03835,-0.1186804 0.0017,-0.00376 0.0068,-0.018786 0.01385,-0.018701 -0.01287,0.090495 0.0012,0.0058 -0.226434,-0.1129986 -0.0035,-0.00181 0.0073,0.00353 0.0097,0.00662 0.01139,0.014547 0.02016,0.041015 0.02486,0.056974 0.0049,0.016714 0.0085,0.033805 0.0127,0.050707 0.03529,0.1642527 0.01135,0.3313229 -0.01527,0.4948051 -0.02802,0.144455 -0.04278,0.2907237 -0.05417,0.437257 -0.0064,0.06984 -0.0087,0.1410984 -0.02655,0.2093015 -0.05081,0.075723 -0.01891,0.024584 0.227256,0.1186929 0.0084,0.0032 -0.0029,-0.017751 -0.0032,-0.026716 -0.002,-0.061141 0.0092,-0.1213544 0.01865,-0.1814419 0.01112,-0.069645 0.02793,-0.1381425 0.04347,-0.2068684 0.01228,-0.054277 0.02401,-0.1085745 0.03733,-0.162608 0.01064,-0.031288 0.01398,-0.066976 0.03055,-0.096273 0.0017,-0.00305 0.01059,-0.0057 0.0075,-0.00738 -0.238731,-0.1307043 -0.230242,-0.1966319 -0.227225,-0.078871 -0.0092,0.163619 -0.05552,0.3220219 -0.100263,0.4787361 -0.02935,0.097933 -0.06248,0.195013 -0.104506,0.2883097 -0.01582,0.035122 -0.03181,0.066261 -0.04899,0.1005979 -0.03354,0.066099 -0.07545,0.1277593 -0.103488,0.1965225 -0.01236,0.037737 -0.016,0.077432 -0.02651,0.1156388 -0.0014,0.00171 -0.0032,0.012144 -0.0068,0.01288 -5.78e-4,1.225e-4 -2.09e-4,-0.00116 -3.85e-4,-0.00173 -1.88e-4,-5.985e-4 -4.69e-4,-0.00116 -7.06e-4,-0.00175 -2.38e-4,-8.085e-4 -4.77e-4,-0.00162 -7.15e-4,-0.00243 -7.9e-4,-4.043e-4 -0.0015,-0.00107 -0.0024,-0.00121 -0.009,-0.00153 -0.02189,0.00154 -0.03042,0.00222 -0.02946,0.00234 -0.02053,0.00163 -0.05346,0.00308 -0.06702,4.288e-4 -0.13395,-0.00373 -0.200761,-0.00855 -0.0282,-0.00439 -0.05734,-0.0061 -0.08378,-0.017584 -0.08243,-0.030998 -0.184568,-0.1537491 0.205503,0.1194954 0.01542,0.010799 -0.02434,0.024582 -0.0025,0.022837 0.007,-5.618e-4 0.01397,-0.0021 0.02095,-0.00315 0.08944,-0.00766 0.179266,-0.00924 0.268802,-0.015849 0.02213,-0.0032 0.102926,-0.010624 0.0928,-0.051677 -0.0018,-0.00735 -0.0086,-0.012456 -0.01293,-0.018684 -0.07975,-0.04337 -0.157829,-0.089978 -0.239258,-0.1301111 -0.01076,-0.0053 -0.02371,-0.00365 -0.03558,-0.00535 -0.01465,-0.00209 -0.0293,-0.0042 -0.04399,-0.00603 -0.04937,-0.00614 -0.09876,-0.011811 -0.148086,-0.01834 -0.02457,-0.00215 -0.04891,-0.00635 -0.07345,-0.00874 -0.01038,-0.00101 -0.02882,-0.00367 -0.0397,0.00153 -0.01246,0.00596 -0.0126,0.013959 -0.01688,0.025676 -0.0043,0.019571 0.009,0.044119 0.007,0.063122 -3.31e-4,0.00319 -0.0016,0.00622 -0.0023,0.00932 0.207717,0.1223893 0.237296,0.1908991 0.246718,0.052721 0.0027,-0.047251 0.01073,-0.093775 0.02049,-0.1399891 0.0022,-0.017082 0.01182,-0.034196 0.01001,-0.051628 -7.64e-4,-0.00308 -0.0011,-0.00631 -0.0023,-0.00924 -0.0035,-0.00844 -0.009,-0.015928 -0.01334,-0.023966 -0.0082,-0.015119 -0.01622,-0.030316 -0.02412,-0.045592 -0.01,-0.019393 -0.02075,-0.038319 -0.03408,-0.055601 -0.01446,-0.019747 -0.02894,-0.03943 -0.04441,-0.058406 -0.01667,-0.021893 -0.03759,-0.039588 -0.0579,-0.057898 -0.02365,-0.020236 -0.04631,-0.041579 -0.06948,-0.062351 -0.02492,-0.022526 -0.05154,-0.042971 -0.07781,-0.063863 -0.03045,-0.024004 -0.0604,-0.0486 -0.08767,-0.076197 -0.0244,-0.027061 -0.05046,-0.052372 -0.07868,-0.075407 C 11.156992,8.4451244 11.06356,8.3853295 10.96118,8.349381 10.93235,8.339257 10.93095,8.339471 10.89986,8.330815 10.80665,8.306224 10.712097,8.287477 10.617021,8.271861 10.532011,8.258482 10.447308,8.243142 10.363322,8.22436 c -0.03622,-0.0067 -0.07102,-0.018854 -0.106695,-0.027759 -0.0083,-0.00209 -0.01706,-0.00343 -0.02563,-0.00295 -0.0139,0.021133 -0.01558,0.025666 -0.0037,0.046053 0.07851,0.04228 0.155035,0.088468 0.235525,0.1268408 0.0078,0.00371 0.01719,-0.00163 0.02579,-0.00226 0.015,-0.0011 0.03,-0.0022 0.04502,-0.00295 0.07545,-0.00378 0.150811,-0.00378 0.226327,-0.0035 0.141591,0.0044 0.283142,0.012678 0.424248,0.025228 0.119573,0.010242 0.238542,0.028288 0.355728,0.054216 0.06627,0.014662 0.09251,0.022471 0.156415,0.039712 0.04026,0.012367 0.06934,0.020231 0.107644,0.035606 0.01118,0.00449 0.04324,0.02116 0.03284,0.015081 -0.06796,-0.039723 -0.1381,-0.075659 -0.20564,-0.1160863 -0.004,-0.00239 -0.0031,-0.011779 -0.0077,-0.011626 -0.0175,5.757e-4 -0.03384,0.00903 -0.05077,0.013549 -0.03045,0.00464 -0.06077,0.010315 -0.09136,0.013924 -0.183867,0.021688 -0.371387,0.024595 -0.555745,0.00741 -0.04147,-0.00387 -0.08265,-0.010375 -0.123973,-0.015562 -0.127796,-0.020862 -0.255119,-0.053055 -0.369658,-0.1148147 0.354422,0.1952043 0.223512,0.1405893 0.15995,0.084623 -0.02109,-0.018569 -0.0408,-0.038613 -0.06067,-0.058457 -0.01772,-0.018451 -0.03638,-0.035934 -0.0551,-0.053353 -0.0044,-0.00405 -0.0088,-0.00804 -0.01306,-0.012154 -0.0027,-0.00258 -0.0042,-0.00729 -0.0079,-0.00792 -0.0021,-3.605e-4 -0.001,0.00422 -0.0015,0.00632 0.0033,0.0024 0.0059,0.00698 0.01004,0.00719 0.01641,8.103e-4 0.03273,-0.00284 0.04909,-0.00427 0.02867,5.408e-4 0.05737,3.5e-5 0.086,0.00162 0.121236,0.00676 0.240987,0.025373 0.360779,0.044148 0.09324,0.017844 0.187359,0.032954 0.279078,0.057975 0.01754,0.00479 0.03521,0.00948 0.05202,0.016401 0.0098,0.00403 0.03617,0.021943 0.02726,0.016235 -0.07098,-0.045505 -0.142333,-0.090423 -0.2135,-0.1356343 -0.143865,0.036669 -0.292287,0.052189 -0.439566,0.06838 -0.07658,0.0076 -0.153287,0.013543 -0.230243,0.015028 -0.04183,8.068e-4 -0.07715,1.575e-4 -0.118283,-0.00573 -0.0092,-0.00194 -0.02635,-0.00451 -0.03533,-0.00982 -0.0035,-0.00208 -0.01245,-0.010467 -0.0089,-0.00847 0.458638,0.2569047 0.248027,0.1699211 0.197054,0.1078548 -0.01423,-0.023874 -0.02705,-0.048657 -0.03967,-0.073437 -0.0026,-0.014382 -0.0063,0.00499 -0.0044,0.00697 0.0038,0.00394 0.01072,0.0024 0.01619,0.00283 0.01348,0.00106 0.02705,6.807e-4 0.04054,0.00164 0.06009,0.00427 0.07936,0.00789 0.142532,0.016208 0.143448,0.020308 0.284328,0.053558 0.423977,0.091482 0.04136,0.015074 0.0828,0.024766 0.126365,0.029978 0.03967,0.00508 0.07794,0.016641 0.115847,0.028944 0.02047,0.00926 0.04237,0.01538 0.06292,0.024361 0.0028,0.00122 0.0056,0.00646 0.008,0.00452 0.0083,-0.00685 0.01234,-0.017609 0.01851,-0.026414 -0.07768,-0.046844 -0.154772,-0.094689 -0.23305,-0.1405336 -0.0082,-0.00482 -0.01745,-0.00776 -0.02629,-0.011352 -0.01509,-0.00613 -0.03022,-0.012154 -0.04549,-0.017806 -0.07441,-0.027546 -0.150064,-0.049908 -0.226283,-0.071809 -0.124177,-0.03438 -0.249192,-0.065622 -0.37372,-0.098672 -0.0073,-0.00228 -0.01501,-0.010278 -0.02182,-0.00685 -0.0105,0.00528 -0.03054,0.021609 -0.02093,0.028372 0.07577,0.053313 0.162118,0.089982 0.245764,0.1298189 0.01352,0.00644 0.02954,0.00503 0.04417,0.00826 0.05411,0.011952 0.08222,0.020813 0.136871,0.036229 0.02525,0.0077 0.05054,0.015274 0.07576,0.023098 0.06798,0.021094 0.06722,0.020913 0.13104,0.043135 0.03488,0.012144 0.06898,0.025249 0.104855,0.034029 0.0161,-0.00274 0.02543,-2.048e-4 0.02276,-0.028358 -0.0012,-0.012993 -0.03054,-0.034482 -0.03772,-0.038693 -0.231345,-0.1355454 -0.152187,-0.1096398 -0.274288,-0.144774 -0.07219,-0.01661 -0.146079,-0.010154 -0.218788,-0.00148 -0.01516,4.585e-4 -0.03025,0.00332 -0.0452,-3.938e-4 -0.0062,-0.00153 -0.01058,-0.00494 -0.01664,-0.00638 -0.03579,0.00287 -0.07162,0.00421 -0.107509,0.00504 -0.03923,5.25e-5 -0.07907,0.00208 -0.117807,-0.00578 -0.01382,-0.0028 -0.02172,-0.00609 -0.03452,-0.010694 0.07102,0.039655 0.142047,0.07931 0.21307,0.1189648 -0.0013,0.00469 -0.0082,0.011659 -0.004,0.014072 0.0058,0.00328 0.01272,-0.00384 0.01916,-0.00544 0.01725,-0.0043 0.03435,-0.00947 0.05191,-0.012271 0.06954,-0.011083 0.103505,-0.00932 0.175975,-0.011208 0.116464,0.00341 0.234632,0.00853 0.348879,0.033726 0.01446,0.00319 0.0553,0.020055 0.04268,0.012313 -0.06714,-0.04118 -0.138231,-0.075541 -0.207347,-0.1133107 -6.47e-4,-0.00769 0.005,-0.019614 -0.0019,-0.023068 -0.01096,-0.00549 -0.02434,0.0032 -0.03658,0.00378 -0.01838,8.645e-4 -0.0368,7.595e-4 -0.0552,5.373e-4 -0.06435,-7.753e-4 -0.128096,-0.0064 -0.192108,-0.012475 0,0 0.175352,0.1293111 0.175352,0.1293111 v 0 c 0.06397,0.00291 0.1279,0.00626 0.191729,0.011525 0.02183,0.0018 0.04362,0.00403 0.06543,0.0061 0.01776,0.00169 0.03588,0.0092 0.05326,0.00517 0.01566,-0.00363 0.02673,-0.017876 0.0401,-0.026814 -0.07386,-0.040971 -0.14578,-0.085657 -0.221583,-0.1229128 -0.0083,-0.00409 -0.01853,5.53e-4 -0.02779,3.517e-4 -0.01805,-3.937e-4 -0.03609,-0.00135 -0.05413,-0.00214 -0.09021,-0.00393 -0.180412,-0.00816 -0.270668,-0.011041 -0.05891,-0.0015 -0.141524,-0.00386 -0.201121,-0.00443 -0.02455,-2.327e-4 -0.04916,-0.00155 -0.07366,1.4e-4 -0.01445,9.993e-4 -0.03022,5.933e-4 -0.04271,0.0079 -0.0087,0.0051 -0.02354,0.020132 -0.01539,0.026085 0.07046,0.051446 0.151838,0.085977 0.227758,0.1289655 0.04823,0.00641 0.09683,0.00205 0.145308,0.0038 0.04023,0.00137 0.08196,8.103e-4 0.121006,0.011585 0.01824,0.00374 0.03775,-0.00784 0.05556,-0.00983 0.06879,-0.015376 0.132704,-0.018765 0.201121,0.00329 0.10085,0.040779 0.05613,0.024967 -0.135713,-0.087696 -0.006,-0.00354 0.02789,0.01828 0.03011,0.017691 0.0058,-0.00154 0.0089,-0.008 0.0134,-0.011997 -4.99e-4,5.25e-5 -9.98e-4,1.225e-4 -0.0015,1.82e-4 -0.02653,-0.00262 -0.05214,-0.00986 -0.07785,-0.016787 -0.06517,-0.017549 -0.130035,-0.036321 -0.194499,-0.056307 -0.04988,-0.015429 -0.103163,-0.031651 -0.152806,-0.048015 -0.02012,-0.00663 -0.07733,-0.032946 -0.06013,-0.020583 0.38338,0.2755394 0.21177,0.03502 0.166928,0.1407476 -0.0017,0.00391 0.0085,8.75e-5 0.01274,1.4e-4 0.11378,0.015335 0.225758,0.042361 0.336423,0.072473 0.02903,0.00903 0.0583,0.017315 0.08708,0.027089 0.05647,0.019174 0.104341,0.038255 0.15824,0.063108 0.01937,0.00893 0.03837,0.018657 0.05728,0.028521 0.01294,0.00675 0.05062,0.029075 0.03826,0.021311 -0.06758,-0.042443 -0.135966,-0.083584 -0.203949,-0.1253765 0.0064,-0.0084 0.0145,-0.01573 0.01915,-0.025203 9.22e-4,-0.00188 -0.0041,-7.017e-4 -0.0062,-0.00129 -0.01943,-0.00569 -0.0381,-0.013903 -0.05765,-0.01925 -0.03956,-0.011888 -0.07967,-0.021987 -0.120649,-0.027611 -0.03723,-0.00632 -0.07408,-0.014386 -0.111278,-0.020874 -0.132031,-0.021455 -0.264039,-0.043244 -0.395415,-0.068432 -0.05559,-0.010985 -0.111102,-0.022329 -0.166692,-0.033295 -0.01097,-0.00216 -0.07271,-0.017724 -0.09188,-0.01011 -0.02213,0.00879 -0.01632,0.017776 -0.01254,0.030266 0.01543,0.023316 0.02995,0.047132 0.03922,0.073627 3.92e-4,8.838e-4 0.0088,0.020425 0.01001,0.021165 0.121681,0.076143 0.158818,0.1396297 0.267775,0.1370588 0.10269,-0.00795 0.203346,-0.032284 0.305492,-0.044685 0.09884,-0.013052 0.197408,-0.025131 0.297008,-0.030901 0.02983,-0.00173 0.05971,-0.00255 0.08957,-0.00352 0.02331,-7.578e-4 0.0467,1.82e-4 0.06995,-0.00166 0.01617,-0.00128 0.03204,-0.00513 0.04806,-0.00769 -0.06631,-0.050252 -0.131178,-0.1024576 -0.198923,-0.1507546 -0.0039,-0.00281 -0.0097,-7.682e-4 -0.01448,-0.00139 -0.01317,-0.00169 -0.02629,-0.00381 -0.03946,-0.00553 C 10.988776,8.232382 10.906912,8.223697 10.825478,8.211714 10.699668,8.19424 10.57397,8.176395 10.448505,8.156563 c -0.03656,-0.00578 -0.07301,-0.012231 -0.109611,-0.017716 -0.02488,-0.00373 -0.04968,-0.010514 -0.07483,-0.00992 -0.01386,3.255e-4 -0.02642,0.00841 -0.03964,0.012614 -0.0012,0.00617 -0.0053,0.012415 -0.0037,0.018512 10e-4,0.00394 0.0271,0.024038 0.02764,0.024482 0.02061,0.017023 0.04097,0.034422 0.05981,0.053402 0.01833,0.019119 0.0364,0.038514 0.05487,0.057494 0.002,0.00208 0.02777,0.028037 0.03055,0.029696 0.07562,0.045062 0.152769,0.08749 0.229154,0.1312351 0.100671,0.039607 0.208762,0.054451 0.315906,0.064427 0.03793,0.00234 0.07581,0.00549 0.113783,0.00701 0.0884,0.00353 0.193319,0.00298 0.281107,0.00349 0.137692,7.998e-4 0.275444,8.173e-4 0.413062,0.00594 0.02618,2.73e-4 0.0529,0.00613 0.07854,8.225e-4 0.01594,-0.0033 0.05366,-0.014828 0.04153,-0.025677 -0.125623,-0.112333 -0.200148,-0.1320331 -0.335697,-0.161687 -0.169302,-0.035825 -0.339676,-0.066539 -0.511183,-0.089845 -0.07001,-0.0088 -0.139725,-0.017099 -0.210344,-0.019042 -0.01787,-4.918e-4 -0.11618,1.575e-4 -0.130049,1.225e-4 -0.02643,-5.25e-5 -0.05285,-3.763e-4 -0.07927,-5.653e-4 -0.08252,-0.00174 -0.164875,-0.00367 -0.247012,-0.012583 -0.01937,-0.0021 -0.03872,-0.00462 -0.05791,-0.00801 -0.09395,-0.016604 -0.170073,-0.086596 0.174903,0.1121841 -0.02188,0.00378 -0.0058,-0.014484 -0.02647,0.016317 0.006,0.00131 0.01222,0.00193 0.01825,0.00321 0.03092,0.00546 0.0616,0.012327 0.09276,0.016478 0.0803,0.012874 0.160727,0.024923 0.241105,0.037302 0.09817,0.016952 0.195868,0.037578 0.29058,0.068968 0.03175,0.011339 0.0371,0.012512 0.06672,0.025752 0.0083,0.00369 0.03226,0.016395 0.02448,0.011771 -0.06472,-0.038456 -0.130428,-0.075239 -0.195377,-0.1133134 -0.0048,-0.00284 0.0102,0.00474 0.01503,0.00759 0.0047,0.00277 0.009,0.00616 0.01355,0.00924 0.02916,0.021805 0.05763,0.044522 0.08127,0.072483 0.0064,0.00695 0.01925,0.021169 0.02596,0.027688 0.01905,0.018502 0.04095,0.033839 0.06058,0.051694 0.02548,0.020545 0.05146,0.04054 0.07579,0.062408 0.02434,0.019122 0.04527,0.041941 0.06943,0.061273 0.01946,0.017837 0.0399,0.034667 0.05759,0.05429 0.01568,0.017545 0.03013,0.035861 0.04301,0.055555 0.0127,0.01882 0.0286,0.035445 0.0398,0.055298 0.009,0.014023 0.01635,0.028293 0.0233,0.043446 0.0018,0.00393 0.0036,0.00784 0.0052,0.01187 0.0012,0.003 0.0015,0.00633 0.003,0.00917 7.37e-4,0.00139 0.0024,0.0021 0.0035,0.00315 4.76e-4,0.00125 7.33e-4,0.0026 0.0014,0.00374 6.06e-4,9.958e-4 0.0021,0.00143 0.0024,0.00255 0.0031,0.010701 -0.0019,0.031568 -1.75e-4,0.042465 -0.003,0.046802 -0.0089,0.093504 -0.02122,0.1388738 -0.03198,0.1194564 -0.0298,0.037891 0.219223,0.1597294 -0.0026,0.00197 -0.0045,0.00614 -0.0077,0.0059 -0.0026,-1.925e-4 -0.0028,-0.00439 -0.0039,-0.00676 -0.0063,-0.014015 -0.0076,-0.029281 -0.0108,-0.044125 -0.003,-0.00436 0.0023,-0.00412 0.0079,-0.00493 0.02599,-0.00374 0.05252,-7.823e-4 0.07854,1.4e-4 0.04922,0.00485 0.09839,0.010037 0.147013,0.019364 0.116436,0.022334 0.201006,0.082886 -0.0971,-0.087098 0.005,-1.05e-4 0.01001,-3.5e-5 0.01501,-2.923e-4 0.0029,-1.4e-4 0.0062,-0.00249 0.0087,-9.047e-4 0.0016,0.00102 -5.27e-4,0.00402 -0.0019,0.00531 -0.0033,0.00317 -0.0075,0.00547 -0.01158,0.00751 -0.01679,0.00831 -0.02776,0.010031 -0.0465,0.015007 -0.01208,0.00194 -0.0241,0.00433 -0.03624,0.00581 -0.0797,0.00971 -0.160255,0.00641 -0.240183,0.00214 -0.0022,-1.225e-4 -0.04127,-0.00443 -0.04844,0.00159 -0.0075,0.00627 -0.02306,0.019206 -0.01521,0.024988 0.07011,0.051629 0.150557,0.087505 0.226293,0.130458 0.0044,0.00251 0.01074,5.25e-5 0.01478,0.00376 0.02605,0.0046 0.05243,0.00656 0.07891,0.0057 0.06534,-0.00122 0.130667,4.55e-4 0.195914,0.00425 0.03674,0.00173 0.02852,0.00105 0.06257,0.00367 0.01226,9.433e-4 0.02789,0.00444 0.04044,0.0027 0.0018,-2.503e-4 0.0034,-0.00114 0.0052,-0.00171 0.01281,-0.00925 0.01746,-0.021607 0.01896,-0.037168 0.0014,-0.039277 0.0038,-0.07892 0.01378,-0.1170894 0.02109,-0.071011 0.05472,-0.1373037 0.08403,-0.2051416 0.01535,-0.038044 0.02768,-0.067412 0.04134,-0.106453 0.0344,-0.098295 0.05793,-0.1999834 0.08707,-0.2998617 0.02473,-0.088308 0.0495,-0.1765991 0.07628,-0.2643137 0.01435,-0.04699 0.03034,-0.098671 0.04759,-0.1449971 0.006,-0.016045 0.01295,-0.031701 0.01942,-0.047551 0.05543,-0.1006754 0.02807,-0.030474 -0.209734,-0.1567114 -0.0039,-0.00207 0.0024,0.00862 0.0024,0.013033 -1.7e-5,0.034771 -0.01044,0.072118 -0.01358,0.1065116 -0.01832,0.1262039 -0.03759,0.2525348 -0.06635,0.3768391 -0.01368,0.051499 -0.01898,0.075436 -0.03578,0.1245279 -0.0047,0.013838 -0.01006,0.027478 -0.01569,0.040976 -0.0031,0.00738 -0.01706,0.017142 -0.01042,0.021601 0.07245,0.048687 0.152064,0.085858 0.229705,0.1257536 0.0027,0.00138 -0.0014,-0.00588 -0.0021,-0.00882 -0.0082,-0.075352 -0.0063,-0.1513334 -0.0072,-0.2269946 0.003,-0.1486203 0.0144,-0.296849 0.03695,-0.4438761 0.02291,-0.1612935 0.04721,-0.3237588 0.04453,-0.4870621 -0.0017,-0.034311 -0.0034,-0.068188 -0.007,-0.1023096 -4.78e-4,-0.00454 0.0028,-0.01132 -0.0011,-0.013654 -0.228801,-0.1360488 -0.1765,-0.1926772 -0.240004,-0.1172507 -0.0049,0.012888 -0.0045,0.023266 -0.0042,0.037237 0.0011,0.047522 0.0028,0.095032 0.0043,0.1425415 0.0047,0.3357977 -0.01139,0.6718366 -0.04841,1.0056627 -0.0094,0.07144 -0.0178,0.143034 -0.02834,0.214321 -0.0154,0.1041428 -0.03544,0.2159263 -0.05737,0.3196506 -0.0063,0.02993 -0.01395,0.059572 -0.02083,0.08938 -0.01208,0.052327 -0.0086,0.035613 -0.0159,0.07434 0.07492,0.04713 0.147348,0.09849 0.224771,0.1413894 0.0043,0.00238 0.0056,-0.00819 0.0073,-0.012828 0.0016,-0.00448 0.0014,-0.00938 0.0021,-0.01408 0.0011,-0.00791 0.0022,-0.015821 0.0033,-0.02373 0.0064,-0.046119 0.0039,-0.028371 0.01187,-0.081023 0.02151,-0.149968 0.04853,-0.2991091 0.06852,-0.44931 0.0064,-0.053496 0.009,-0.067151 0.0116,-0.1180559 0.0024,-0.047154 -5.04e-4,-0.094286 -3.85e-4,-0.1414493 -0.0019,-0.1075109 -0.01359,-0.214864 -0.0068,-0.3225088 0.0051,-0.084071 0.0055,-0.1152551 0.0168,-0.2002306 0.0175,-0.1311581 0.0488,-0.2599056 0.08961,-0.3856876 0.0245,-0.072105 0.0216,-0.066271 0.04705,-0.1319214 0.0023,-0.00588 0.02714,-0.074754 0.03827,-0.07992 -0.03331,0.086137 -10e-4,0.00957 -0.221053,-0.1236528 -0.0018,-0.00108 0.0044,6.353e-4 0.0059,0.0021 0.0077,0.00756 0.01227,0.029082 0.0159,0.038125 0.01548,0.0513 0.03066,0.1032973 0.03531,0.156891 5.41e-4,0.00579 0.0018,0.011575 0.0015,0.017384 -5.32e-4,0.010233 -0.01056,0.018843 -0.01241,0.028617 -0.02634,0.057112 -0.05052,0.115415 -0.08375,0.1690486 -0.01052,0.017307 -0.02237,0.038726 -0.03586,0.054432 -0.0028,0.0033 -0.01379,0.00587 -0.01013,0.00821 0.07073,0.045179 0.145646,0.08345 0.218599,0.124948 0.004,0.00228 -0.0088,-0.00375 -0.01174,-0.00728 -0.0051,-0.0061 -0.0079,-0.013841 -0.0118,-0.020762 -0.03976,-0.089923 -0.06597,-0.185072 -0.087,-0.2809645 -0.0055,-0.029629 -0.01202,-0.060407 -0.0146,-0.090577 -4.66e-4,-0.00544 -0.0038,-0.046824 0.0052,-0.054149 0.0024,-0.00198 0.0058,-0.00239 0.0087,-0.00358 0.06507,-0.012358 0.132522,-0.00668 0.198291,-0.00748 0.03756,0.00151 0.07506,0.00296 0.112483,0.00664 0.09801,0.00963 0.167634,0.1034304 -0.182116,-0.1471122 -0.02709,0.011801 -0.06663,0.0092 -0.09682,0.014025 -0.132758,0.00703 -0.265701,0.00648 -0.3986,0.00445 -0.105717,-0.0015 -0.211836,-0.0019 -0.316968,-0.014327 z" />
  <path
     style="opacity:0.992467;fill:#ffffff;fill-opacity:1;stroke:none;stroke-width:17.5;stroke-dasharray:none;stroke-opacity:1;paint-order:stroke fill markers"
     id="path31"
     d="m 9.0249969,7.5006873 c 9.275e-4,0.00456 0.0023,0.00906 0.00278,0.013692 0.00934,0.089181 -0.014699,0.1846825 -0.034353,0.2708928 -0.012737,0.051635 -0.02672,0.1033362 -0.047557,0.152408 -0.0021,0.00496 -0.013523,0.032665 -0.022768,0.037924 -0.00189,0.00108 -0.00381,-0.00212 -0.00571,-0.00318 0.073845,0.037336 0.1441281,0.082766 0.2215363,0.1120077 0.010344,0.00391 -0.00782,-0.020883 -0.00931,-0.031839 -0.00252,-0.018443 -0.00306,-0.03717 -0.00267,-0.055781 0.00152,-0.073521 0.016927,-0.1448234 0.03256,-0.2162789 0.01139,-0.040482 0.018032,-0.068335 0.032821,-0.1066616 0.00405,-0.010508 0.00787,-0.021288 0.013921,-0.030789 0.00268,-0.00421 0.016042,-0.00699 0.011668,-0.0094 -0.072493,-0.039962 -0.1438528,-0.086222 -0.2238343,-0.1075585 -0.01627,-0.00434 0.00517,0.033278 0.00776,0.049917 2.59e-4,0.03123 0.00171,0.062473 7.77e-4,0.09369 -0.00726,0.2437195 -0.045008,0.4913227 -0.09276,0.7300094 -0.013051,0.065235 -0.028224,0.1300264 -0.042336,0.1950396 -0.055484,0.2326796 -0.123868,0.4620936 -0.1703142,0.6968692 -0.00872,0.042752 -0.015874,0.085782 -0.022788,0.1288501 -0.00113,0.00706 -0.00191,0.014198 -0.00346,0.021184 -7.49e-4,0.00339 -0.00645,0.00821 -0.0034,0.00986 0.075191,0.040603 0.1535198,0.075106 0.2302797,0.1126592 -0.035167,-0.170489 -0.033936,-0.3460599 -0.023273,-0.5190241 0.00427,-0.069254 0.010444,-0.1384107 0.01825,-0.2073561 0.00749,-0.066189 0.018422,-0.1319434 0.027633,-0.197915 0.022998,-0.1403896 0.055105,-0.2791658 0.095226,-0.4156186 0.01725,-0.05867 0.038098,-0.1161686 0.056872,-0.1743458 0.019179,-0.064648 0.035796,-0.1300542 0.061369,-0.1926176 0.016043,-0.039249 0.021865,-0.048374 0.040778,-0.084282 0.00635,-0.00691 0.0097,-0.020095 0.019061,-0.020727 0.00687,-4.638e-4 0.014887,0.021183 0.0084,0.018872 -0.06898,-0.024573 -0.1282159,-0.086969 -0.201439,-0.087641 -0.028878,-2.66e-4 0.00929,0.057087 0.011306,0.085895 0.00669,0.095402 0.00149,0.1517551 -0.00248,0.2486663 -0.010977,0.1881194 -0.0429,0.3738598 -0.071445,0.5598222 -0.00475,0.033249 -0.010101,0.066468 -0.01733,0.099282 -0.00126,0.00573 -0.00247,0.011484 -0.00417,0.0171 -9.607e-4,0.00318 -0.00674,0.00768 -0.00379,0.0092 0.075962,0.039134 0.154837,0.072331 0.2322555,0.1084972 -0.00442,-0.0067 -0.010611,-0.01253 -0.013268,-0.020109 -0.00981,-0.027986 -0.017066,-0.088713 -0.019688,-0.1150781 -0.0068,-0.068339 -0.0069,-0.1361229 -0.00519,-0.2046548 0.00105,-0.016416 0.00165,-0.032866 0.00315,-0.049247 8.838e-4,-0.00966 0.00476,-0.046537 0.010512,-0.058926 0.00126,-0.00272 0.00993,-0.00399 0.00725,-0.00534 C 8.8797151,8.2336602 8.8539167,8.196439 8.9293484,8.2831261 c 0.00883,0.018649 0.018686,0.036844 0.026485,0.055947 0.0502,0.1229624 0.074041,0.2551803 0.092291,0.3860451 0.00838,0.060005 0.013483,0.1203839 0.014402,0.1809446 8.085e-4,0.025588 0.015671,0.047912 0.027356,0.069893 0.015475,0.030039 0.032822,0.059036 0.049892,0.088178 0.04794,0.086469 0.1587061,0.2043804 0.2576578,0.1636588 0.017151,-0.013653 0.023988,-0.032663 0.026789,-0.053647 0.00517,-0.060907 0.03547,-0.1159099 0.063618,-0.1689182 0.018445,-0.034812 0.040875,-0.067721 0.056683,-0.1039157 0.00749,-0.017139 0.00846,-0.022241 0.01391,-0.04015 0.00163,-0.00844 0.00357,-0.016824 0.00488,-0.025318 0.0049,-0.031702 0.00532,-0.049995 0.00892,-0.083741 0.00254,-0.0238 0.00521,-0.047588 0.00827,-0.071326 0.01175,-0.091113 0.015919,-0.1118717 0.031203,-0.2068893 0.00774,-0.039815 0.015111,-0.079705 0.023232,-0.1194442 0.021133,-0.1034238 0.028112,-0.1290943 0.05084,-0.2306019 0.01537,-0.068645 0.030624,-0.1338426 0.041027,-0.2034294 0.00507,-0.033936 0.00803,-0.068156 0.012042,-0.1022336 0.00114,-0.038554 0.00418,-0.0771 0.00341,-0.1156636 -0.00178,-0.088454 -0.01484,-0.2054455 -0.024753,-0.292056 C 9.6994588,7.2528813 9.6766871,7.0959557 9.65404,6.9389968 9.6217133,6.7033437 9.5753427,6.4700799 9.5251303,6.237699 9.5069747,6.1535987 9.4885072,6.0694713 9.4631672,5.9871774 9.4512644,5.9485227 9.4402247,5.9163556 9.4231854,5.8801027 9.4176607,5.8683483 9.410906,5.8572124 9.4047662,5.845767 9.3381384,5.7623151 9.3462799,5.766464 9.1540701,5.7041695 c -0.014318,-0.00464 -0.020948,0.022045 -0.028325,0.035164 -0.010973,0.019513 -0.018415,0.040849 -0.02622,0.061831 -0.020601,0.055385 -0.04348,0.1344183 -0.06022,0.1896461 -0.047692,0.1690792 -0.1036717,0.3362954 -0.1391162,0.5085514 -0.011668,0.064788 -0.012522,0.1306973 -0.00817,0.1961851 0.00966,0.1049829 -0.1217435,-0.00119 0.2338288,0.1323963 0.00799,0.003 -3.727e-4,-0.01706 -8.347e-4,-0.025578 -0.00416,-0.076634 -0.00341,-0.011534 -0.0019,-0.1077601 0.00911,-0.140011 0.042442,-0.2778099 0.093341,-0.4084071 0.00684,-0.017542 0.014765,-0.034639 0.022147,-0.051959 0.014024,-0.027368 0.025511,-0.056778 0.044116,-0.081605 4.708e-4,-6.282e-4 0.00766,-0.010675 0.012126,-0.00995 0.00106,1.75e-4 0.00117,0.00181 0.00176,0.00272 0.00166,-0.00234 0.00372,-0.00443 0.00497,-0.00701 0.00239,-0.00494 0.00392,-0.010255 0.00588,-0.015383 0.00415,-0.00981 0.00775,-0.019878 0.01244,-0.029444 0.00753,-0.015358 0.015432,-0.030565 0.024198,-0.045255 C 9.377625,5.9921132 9.384361,5.9871412 9.425854,5.9342304 9.490188,5.8602174 9.5643606,5.7952017 9.64832,5.744491 9.689752,5.718508 9.731144,5.692301 9.775795,5.672043 9.788596,5.666233 9.801779,5.66131 9.814771,5.655943 9.9355264,5.612488 10.063347,5.595973 10.189775,5.578259 10.30029,5.563208 10.41105,5.549411 10.522268,5.540737 c 0.02187,-0.00222 0.04393,-0.00251 0.06577,2.118e-4 0.0035,4.375e-4 0.0072,3.692e-4 0.01045,0.0018 0.002,8.978e-4 0.0064,0.00597 0.0045,0.00485 -0.07423,-0.043933 -0.147822,-0.088932 -0.221733,-0.1333985 0.0016,-0.0032 0.0039,-0.00614 0.0048,-0.00961 3.28e-4,-0.00129 -0.0019,0.00184 -0.003,0.00257 -0.0068,0.00449 -0.01431,0.0067 -0.02209,0.00861 -0.0035,-4.935e-4 -0.0053,-0.00451 -0.0086,-0.00532 -0.0099,-0.00244 -0.03566,2.275e-4 -0.04093,8.523e-4 -0.06111,0.00725 -0.06654,0.011022 -0.135262,0.027247 C 9.9703438,5.49537 9.7683733,5.5651999 9.5627,5.6225215 c -0.033213,0.00926 -0.066651,0.017689 -0.099976,0.026534 -0.067898,0.017802 -0.1369237,0.032474 -0.2071285,0.036967 -0.042198,0.0027 -0.084807,3.5e-5 -0.1270297,-7.07e-4 -0.067994,0.00124 -0.1330346,0.022283 -0.1971156,0.043035 -0.00442,0.00152 -0.010191,0.00103 -0.013275,0.00455 -0.060526,0.069007 0.1490655,0.1117194 0.2354082,0.14287 0.016337,0.00589 0.033582,-0.00892 0.050536,-0.012687 0.08308,-0.018475 0.1244686,-0.024578 0.21337,-0.04029 0.285244,-0.04786 0.5724244,-0.082916 0.8597876,-0.1151518 0.06121,-0.00712 0.122733,-0.012387 0.183764,-0.021077 0.0049,-7.017e-4 0.03964,-0.0063 0.04825,-0.00932 0.0041,-0.00142 0.0075,-0.00416 0.01128,-0.00625 0.0025,-0.00585 0.01264,-0.013826 0.0075,-0.017562 -0.0723,-0.052424 -0.149763,-0.097508 -0.227296,-0.1418252 -0.0062,-0.00354 -0.01429,-1.75e-4 -0.02143,-3.448e-4 -0.01216,-2.887e-4 -0.02431,-6.107e-4 -0.03646,-0.00103 -0.02818,-9.73e-4 -0.09537,-0.00381 -0.120473,-0.00485 -0.07294,-0.0037 -0.1457795,-0.00908 -0.2185158,-0.015611 -0.048015,-0.00431 -0.095596,-0.00996 -0.1437634,-0.011941 -0.010144,0.00135 -0.020577,0.0013 -0.030432,0.00406 -0.033991,0.00952 -0.059308,0.037751 -0.085479,0.059435 -0.037594,0.03115 -0.032205,0.026184 -0.072629,0.055009 -0.051333,0.031307 -0.025734,0.016657 -0.076705,0.044107 0,0 0.1941455,0.1258689 0.1941455,0.1258689 v 0 c 0.04822,-0.030853 0.023481,-0.014946 0.074206,-0.047741 0.025921,-0.017437 0.051429,-0.035487 0.077477,-0.052734 0.034521,-0.022856 0.069787,-0.044511 0.1119494,-0.048334 0.1124633,-0.00756 0.2255603,0.00178 0.3375443,0.01192 0.02479,0.00297 0.04966,0.00538 0.07438,0.0089 0.02132,0.00304 0.04258,0.00658 0.0637,0.010799 0.01554,0.0031 0.03107,0.00646 0.04621,0.011148 0.0089,0.00274 0.03327,0.016189 0.02554,0.011058 -0.205789,-0.1365666 -0.271417,-0.08132 -0.196858,-0.1386078 -0.0079,0.010313 -0.02337,0.015915 -0.03468,0.020573 -0.047,0.019365 -0.09624,0.032753 -0.145002,0.046733 -0.02933,0.00758 -0.0585,0.015762 -0.08798,0.022732 -0.2446586,0.057854 -0.4947331,0.093127 -0.7454957,0.1093688 -0.1098643,0.00405 -0.1568768,0.0077 -0.261507,0.00522 -0.02422,-5.757e-4 -0.08994,-0.021056 -0.072559,-0.00418 0.1706791,0.165736 0.2487172,0.061759 0.1766188,0.1393744 -0.00196,0.00211 0.00399,-0.00416 0.00599,-0.00624 0.054108,-0.031433 0.1170223,-0.04294 0.1790558,-0.043484 0.024857,-2.03e-4 0.053755,1.4e-4 0.078506,-0.00241 0.077215,-0.00793 0.1492142,-0.038874 0.2209296,-0.066463 0.2311274,-0.090567 0.4661835,-0.1803246 0.7151965,-0.2048283 0.08753,-0.00235 0.09344,-0.00672 0.170502,0.00393 0.01301,0.0018 0.02572,0.00531 0.03855,0.00811 0.0061,0.00133 0.01201,0.00359 0.0182,0.00426 0.0076,8.242e-4 0.01082,-0.0016 0.01705,-0.00452 0.0085,-0.00423 0.02703,-0.013037 0.03279,-0.019895 0.0039,-0.0046 0.0067,-0.00998 0.01005,-0.014964 -0.07431,-0.045667 -0.147814,-0.092673 -0.222931,-0.137001 -0.0017,-0.00103 -0.0037,0.0016 -0.0057,0.00209 -0.0027,6.755e-4 -0.0056,8.96e-4 -0.0083,0.00138 -0.01825,0.0032 -0.03635,0.0072 -0.05443,0.011214 -0.101487,0.021922 -0.203694,0.040408 -0.30634,0.056033 -0.1114434,0.016544 -0.036098,0.00575 -0.1498848,0.021047 -0.066638,0.00896 -0.1338904,0.016834 -0.1993212,0.032856 -0.016379,0.00401 -0.032421,0.00929 -0.048631,0.013938 -0.063393,0.02248 -0.1279012,0.046079 -0.1826919,0.086048 -0.023528,0.022303 -0.044144,0.046767 -0.06537,0.071294 -0.055294,0.063893 -0.01454,0.017964 -0.077582,0.08871 -0.016214,0.018196 -0.032493,0.036334 -0.04874,0.054501 -0.032492,0.0358 -0.064127,0.071264 -0.097727,0.1060075 -0.012423,0.012845 -0.025179,0.025367 -0.038021,0.037792 -0.00936,0.00906 -0.023984,0.024088 -0.036567,0.031131 -0.011002,0.015076 -0.011919,0.031809 -0.015434,0.049909 -0.00559,0.028787 -0.00916,0.045793 -0.015297,0.075855 -0.033029,0.1561651 -0.070082,0.3114888 -0.1144974,0.4648528 -0.00415,0.01437 -0.020621,0.072545 -0.02749,0.092865 -0.00153,0.00454 -0.00968,0.010779 -0.00558,0.013257 0.074285,0.044838 0.1531793,0.081554 0.2298764,0.1221283 0.00224,0.00119 -0.00507,-0.00186 -0.0065,-0.00396 -0.0027,-0.00395 -0.00354,-0.00888 -0.00531,-0.013321 -0.021154,-0.065866 -0.023284,-0.1348119 -0.022967,-0.2035535 9.397e-4,-0.019777 0.00133,-0.039587 0.00282,-0.059329 0.011931,-0.1580835 0.044469,-0.3147585 0.100992,-0.4630108 0.031224,-0.070018 0.043694,-0.108524 0.087377,-0.169596 0.01185,-0.016567 0.02547,-0.032079 0.040809,-0.04548 0.00749,-0.00654 0.034359,-0.00718 0.026637,-0.013447 C 9.2953621,5.803783 9.228006,5.771392 9.1650382,5.7330555 c -0.00973,-0.00592 0.018517,0.013274 0.027776,0.019912 0.00939,0.011937 0.019674,0.023219 0.028164,0.03581 0.074306,0.1102073 0.1044409,0.2435844 0.1393642,0.3696189 0.05907,0.2382548 0.1183887,0.4766412 0.1652597,0.7176569 0.00879,0.051105 0.018508,0.1020602 0.026376,0.153316 0.035704,0.2325984 0.054501,0.4690189 0.024085,0.7033922 -0.02687,0.2212866 -0.059763,0.4423513 -0.1198155,0.6574659 -0.010484,0.035098 -0.020381,0.070376 -0.031451,0.1052934 -0.026251,0.082801 -0.059899,0.163057 -0.083973,0.2465525 -0.015188,0.050323 -0.029914,0.1008899 -0.055935,0.1470316 -0.028526,0.054866 -0.061448,0.10752 -0.08719,0.1636791 -3.675e-4,0.00126 -0.00597,0.032896 -0.00982,0.021001 -0.042178,-0.077619 -0.00351,-0.00469 0.2131927,0.1227401 0.00235,0.00138 -0.00467,-0.00283 -0.00691,-0.00438 -0.0097,-0.00673 -0.01704,-0.015055 -0.022776,-0.025457 -0.017821,-0.028694 -0.037271,-0.056437 -0.052361,-0.08676 -0.00908,-0.020628 -0.019305,-0.040713 -0.027547,-0.06167 C 9.2729557,8.9510437 9.2508516,8.8847563 9.2360461,8.8165212 9.202535,8.6725898 9.1717876,8.527907 9.1468111,8.3822391 c -0.012922,-0.1170992 0.00394,-0.04536 -0.2422882,-0.147333 -0.00517,-0.00214 -9.625e-4,0.011176 -7.63e-4,0.016768 0.00147,0.041197 0.00966,0.082027 0.011313,0.1232126 0.00426,0.068452 0.00717,0.1364484 0.00495,0.2050646 -9.345e-4,0.028911 -0.003,0.072797 -0.00869,0.1028402 -0.00173,0.00912 -0.00518,0.01783 -0.00777,0.026745 0.078631,0.037606 0.1557342,0.078589 0.2358923,0.112819 0.00388,0.00166 -9.608e-4,-0.00839 -0.00123,-0.012607 -0.00275,-0.043573 -0.00184,-0.08735 -0.00497,-0.1309104 -0.00507,-0.1953829 -0.0031,-0.3912462 0.020645,-0.5855459 0.014368,-0.1019412 0.017231,-0.1344993 0.037073,-0.2318026 0.00512,-0.025092 0.033369,-0.054672 0.017535,-0.074798 -0.02051,-0.026069 -0.1785508,-0.2352649 -0.223873,-0.1556196 -0.0051,0.00896 -0.00722,0.019309 -0.01083,0.028964 -0.0168,0.047498 -0.034583,0.094581 -0.053092,0.1414437 -0.011039,0.027949 -0.028141,0.067776 -0.037274,0.096912 -0.00453,0.014462 -0.00761,0.029342 -0.01141,0.044013 -0.00188,0.016224 -0.00453,0.032377 -0.00563,0.048673 -0.00142,0.021018 -0.00114,0.042116 -0.00192,0.063167 -0.00108,0.029327 -0.00217,0.058657 -0.00367,0.087966 -0.00767,0.1496336 -0.019351,0.2990584 -0.034649,0.4481047 -0.02129,0.1779426 -0.025312,0.2243407 -0.052756,0.4020537 -0.023381,0.1513995 -0.047035,0.3060712 -0.1046748,0.4490145 0.075954,0.041369 0.1505945,0.085246 0.2278619,0.1241062 0.00401,0.00202 -0.00433,-0.00795 -0.00552,-0.012281 -0.00216,-0.00785 -0.00337,-0.015955 -0.00448,-0.024027 -0.00641,-0.046772 -0.00499,-0.094057 -0.00526,-0.1411207 0.00216,-0.067768 0.00239,-0.094174 0.00745,-0.1646349 0.013909,-0.1939161 0.040342,-0.3867877 0.072717,-0.5784111 0.01202,-0.066141 0.023143,-0.1324508 0.03606,-0.1984222 0.050747,-0.2591694 0.1146597,-0.5165935 0.206548,-0.7644843 0.052685,-0.1174976 0.03901,-0.050325 -0.206692,-0.1712874 -0.00579,-0.00285 8.4e-4,0.012914 4.778e-4,0.019359 -0.00288,0.05129 -0.013209,0.1020199 -0.020646,0.1527099 -0.014092,0.07084 -0.029616,0.1409415 -0.047619,0.2108977 -0.00432,0.016788 -0.00875,0.033547 -0.013251,0.050287 -0.00291,0.010832 -0.017948,0.025676 -0.00899,0.032426 0.070706,0.053283 0.1529875,0.089154 0.2294812,0.1337317 0.00901,-0.021232 0.00904,-0.039397 0.01219,-0.062479 0.00747,-0.054669 0.01715,-0.1090189 0.028915,-0.1629292 0.022424,-0.089627 0.04706,-0.1789667 0.080271,-0.2652912 z" />
  <path
     style="opacity:0.992467;fill:#ffffff;fill-opacity:1;stroke:none;stroke-width:17.5;stroke-dasharray:none;stroke-opacity:1;paint-order:stroke fill markers"
     id="path32"
     d="m 9.6038192,5.8031545 c -0.00658,-0.035489 -0.00526,-0.071627 -0.00392,-0.107482 -2.607e-4,-0.014604 -5.145e-4,-0.030322 -0.00746,-0.043536 0,0 -0.2380783,-0.1052305 -0.2380783,-0.1052305 v 0 c 0.00371,0.00527 0.00949,0.00907 0.012621,0.014713 0.00163,0.00294 0.00679,0.018483 0.00759,0.020832 0.0051,0.033967 0.004,0.069016 -0.00216,0.1028003 z" />
  <path
     style="opacity:0.992467;fill:#ffffff;fill-opacity:1;stroke:none;stroke-width:17.5;stroke-dasharray:none;stroke-opacity:1;paint-order:stroke fill markers"
     id="path33"
     d="m 11.580061,7.6615067 c 0.002,-0.017404 0.01194,-0.034816 0.02034,-0.049677 0.0175,-0.030945 0.03864,-0.058277 0.0612,-0.085598 0.03077,-0.031052 0.06046,-0.063212 0.09159,-0.093895 0.01022,-0.011111 0.02222,-0.020036 0.03437,-0.028754 0.0087,-0.00625 0.0018,-0.00295 0.0094,-0.00609 0.01629,-0.012592 0.03225,-0.025282 0.05058,-0.034801 0.003,-0.0022 0.0065,-0.00388 0.009,-0.00661 0.0072,-0.00775 0.01527,-0.023307 0.02014,-0.031832 0.01282,-0.022468 0.02586,-0.04442 0.04019,-0.065959 0,0 -0.209457,-0.1222405 -0.209457,-0.1222405 v 0 c -0.02021,0.0327 -0.04082,0.067358 -0.07438,0.087996 -0.01762,0.012228 -0.03546,0.023927 -0.05454,0.033811 -0.01515,0.01294 -0.02552,0.030022 -0.03903,0.044561 -0.02844,0.033128 -0.05523,0.06728 -0.07939,0.1037212 -0.03397,0.045955 -0.0699,0.090381 -0.110295,0.1308782 z" />
</svg>
